<mxfile host="app.diagrams.net" modified="2020-11-02T10:26:07.233Z" agent="5.0 (Windows)" etag="v3U_ZOXooRxP42dZ2AB5" version="13.8.8" type="github">
  <diagram id="MnezL5NAF8C2aSRuctBU" name="Page-1">
    <mxGraphModel dx="1022" dy="404" grid="1" gridSize="10" guides="1" tooltips="1" connect="1" arrows="1" fold="1" page="1" pageScale="1" pageWidth="850" pageHeight="1100" math="0" shadow="0">
      <root>
        <mxCell id="0" />
        <mxCell id="1" parent="0" />
        <mxCell id="rTl1wURlh0UvGtvhXfdE-1" value="" style="pointerEvents=1;shadow=0;dashed=0;html=1;strokeColor=none;fillColor=#505050;labelPosition=center;verticalLabelPosition=bottom;verticalAlign=top;outlineConnect=0;align=center;shape=mxgraph.office.devices.tv;" parent="1" vertex="1">
          <mxGeometry x="70" y="100" width="180" height="90" as="geometry" />
        </mxCell>
        <object label="HDMI OUT" id="rTl1wURlh0UvGtvhXfdE-5">
          <mxCell style="edgeStyle=orthogonalEdgeStyle;rounded=0;orthogonalLoop=1;jettySize=auto;html=1;exitX=0.5;exitY=0;exitDx=0;exitDy=0;fontStyle=1" parent="1" source="rTl1wURlh0UvGtvhXfdE-3" target="rTl1wURlh0UvGtvhXfdE-1" edge="1">
            <mxGeometry relative="1" as="geometry" />
          </mxCell>
        </object>
        <mxCell id="7P57h7jw-dz2YICdta8h-3" value="&lt;b&gt;Analog 3.5mm audio output&lt;/b&gt;" style="edgeStyle=orthogonalEdgeStyle;rounded=0;orthogonalLoop=1;jettySize=auto;html=1;exitX=0.5;exitY=1;exitDx=0;exitDy=0;" edge="1" parent="1" source="rTl1wURlh0UvGtvhXfdE-3" target="7P57h7jw-dz2YICdta8h-1">
          <mxGeometry relative="1" as="geometry" />
        </mxCell>
        <mxCell id="rTl1wURlh0UvGtvhXfdE-3" value="" style="shape=image;verticalLabelPosition=bottom;labelBackgroundColor=#ffffff;verticalAlign=top;aspect=fixed;imageAspect=0;image=data:image/png,iVBORw0KGgoAAAANSUhEUgAAAJoAAACYCAIAAACTVWdLAAAAAXNSR0IArs4c6QAAAARnQU1BAACxjwv8YQUAAAAJcEhZcwAAFiUAABYlAUlSJPAAAFy4SURBVHhe7Z0HfFRV9vjTJ23SCy2E3pt0RCki0sSKDfuqq2vX1V3Lura1u4pd17U37GKjSJMOAtKLgNRAei+TSft/zzkvw4CAoIDs//M7Sd7cd++5555+z32ZTALr6uoC/g/+f4H/SXP680yrrpYOuuqCAgMDg4K4OmP7B9Bra5lXGxjAHANnCNjj5n8K/jfMuReTYjyBAGyH9ZzeeqipqSkpLS+vqPRUequqqmtqa+kELzQk2OUKi4xwuaMiQ0NDDNkHkKupqQ0IDBCf2NOc/0PWPdbN6c8e8QQEBe8Rf4XFpVu27dq4JWPthi1bt2dlZObk5heVllVUeCorMWc1xsWcdUwKUXNGhLuiIiMS4t2NGySnN05t26pp25ZN09MaJCXEOhTrTYsV/X3lf8Kox6g5/bmijSExhnMfELArK3fZ6o0Ll6xZsnL9hp93mP2qq6sxt4NxcICFQoKDoyLDE+JjWqY36tGlbe/uHbp1bNUsraGDERCAP4hd/Wx5LNv1mDOn8YPK1IoWIkH00F62auPU2Yu/n/fj6p+25OQWEHs++0nkhYXFREfGxkTHxUYnxsfEuKOiSaxhoQxBpKq62uutLiuvKC4pzysoLiwuKSouKy4pIyHjB0aFfTQsLCQxPrZdq6Yn9u168oCePbu0c7lCGWIhGNC84Gjs2DTqMWROf0Oy4RE31r9u47YJk2Z9M3X+qnWbS8rKBauuDrTIiPAGKQmtmzdp1zqdnNm+VXrD1MTkxDh3dOSv6ppozs0rzMzJX79pG/TXbdj608/bd2bmlpZXkAmYzvzIyPC2LdKGDe5z5sgB3Tu3sYnV1TWW7Y9Nox4T5tynIdn3Jk1f8M4nk2fNX55fVMIuBhaKTE1O6Nax9Ql9Ovft0bFD62aJfnueD6AjgcuLv3BWxQbssSP6oKi4dP2m7Yt+XDN7wfIlK37CtAQ0iQE67qiIPt07XHzOsNFD++MrIGPU4OBjMVL/YHP61EFDspkasrzC8/7nU//77lcr1m6ykoQhrHhC786nDj1+QL9uaY1SdLaAnDe0dhVDKVj/rwIrmsVpY2BL6QY5eQVzFq38esq8mfN/3LEzhx6j2qZF2uXnj7z03BHstdyyrR5r6fePNKdPC9iDJv7OweLdT6a88MZnK9f+zJ5HpLL1kejOP30IhmzaJNUmgu+kRAHrc2Dv+/3DLwUXLkjjQYEYyXqycvInTl/w4YRp8xevplQOCQ6Bw5bNGl998WlXXHhqTHSUzKitg3OfLDbxj4I/xpw+4WkQf1a1orgHn37rh2Vrw0JDOV5EhIcPG9T7igtHnXRCD9OvGlGfFfhp7XBp0F8PNLEStLGT9cxbvOqN8d9+OWkO5yLOrByB2rdOv+PGi8aeOZTRYyf3/gHm9MlM8CE3WW7Dz9vveey/EybPRSd0hoWFjj6l/81XndOzazvDx+Sa1Rw1HWl9+XTCKy7kS8UcbV94/fMPv5xWUlpO2mB3H9z/uAf/flWvbu2YAqZtFrT/KIsebXM6otax8VSHhMijmRde/+xfz7xVUFjCLWeGkUP6/e26sZQ5DNkTAP9d7WiqyV8zuhvUWY225qfNT7w4/uOvpktXXR1noZuuOvfOGy50ucKonsCByT/Moix81ECTpVyrqqppbNy8Y/Qlfw9uPDCm9bDQJgN7DP3T5xNnKWIddiWDgekD6z/64CwPSJKoMc6B6XOWDDrrhtAmg2JbDwtuNPCE065dsmI9/cJ3TQ2N+klHFY5SdNoqOCwScgU+/XrmTfc8w4meXYfEddNV5xCUHCU1IqXU1HkCIDutPw58WoIZMxJ5Fbu99ObnDz/zTlFJGf2E6cN3/fmaS84ADSn+mPqIJY80qJuKCsy1qSPu+NdLYWmD4toMD2k8sN+oqxcsWa2IgmCoOuNou/bBgDHG4YgolNe6uvUbt4688HYEiW87IrjxgMtvfriwqIR+Xxwb2tGBI25OnzAmXl5B0fAL/hrU8MT4NiNcTQffeu9zZeUe+jkAGCZX35RjE3wccoVtazzy7DvRLYeSeLFrz2FX/rw1g/4qP6G4HgU4suZEDAMTe/X6zcedfDlWdLc8JaXj6A++mGpIeLq+OvjSecyDj1XdK2WznDp7ccs+50Y2GxLV/ORmvcZ89/0PdHq9R9WiR9CcPgEQiSsZtVG3MxA1PP2kzoMvXbZqA534LwUPDdHNURH4MIKPZ64m49YdmYPOdOqjmFanTJg8m86jadEjZc7dcmpczl64PLXT6NjWw6lgh557S3ZuAZ3+CZbr/yj4RMA1aZSVV1x47QNsogntRka3GPrxVzPoPGoWPSLm9LHu2HLB8qQOo2LbDOdMcv4191Z4Kum0rRTEIy3hUQBEMCF89dEt/3w2uJFYNLLZyR99yQn1KFn08JtTRBOOHW+dv3hVSsdT1ZYDrrjlETtL1m+WAjrpfx58srCV8k3jnkdf5TyKRdlfvtDz9FGw6GE2pwolvFrwLV+9sWGX08mxCHblrY/SQ9Vg0h45kf5AMKF8Txvuffw1X9adMnMRPUd6fzn85uRqBsvOze8w4GIkYb+86LoHxJB+tjxC8vzhYHL5LPr3B18k63LCbtT1jJ82baOnShPyERL/cD4VEnL1v+3yVFaecdldc35YiXwnndDjizceDgkJZqXgoGPld0lHCHzSmcmQ+spbH3vzo4kR4a7maQ2nfPjv1OQE+u2Z0WFXwu6n278THFvimPKLhaC7Hv7PtNlLQoKDOrZt8e4L94SGhoCgthTk/19tCZhoCBskEFhTU/vCo7ecMrAXaWndxi3X3vEUQ+RETA2mNA8vCPXDAeqMzrP1dz6eZA+9GnQ5ff3GrfTU17ECgr0nWKeN+oB85bT2BB/+MQ7KpBZ9tXU5eYUdB1zMSTSo0YCHxr3N6BHaRA+PgwihQDyxJjg4ePX6zYPOuqG6ptbjqfzo1QdGD+1vvzbCb8HzxeVe65pUjIpL/yJ2GeUKguHQ5vpLtF/2/OEAw7glKXfxinWnnHsrPZWV3glvPXrygJ7EK2mMnsPI9mFItqZi03ilt+r6O58qL/eUlJbfecNFPlsKx/WWUKM4bWYBtPGDEIRWTK/XW1xSUlBYWFZWThs0TVxBPhzAZ3WjIPALT2f0jwV4UNGCUELPLu2euv/60rIKmL/h7nF5BcVIALsY8zCyetii03zw4Wfevufx11xhoSf07vzte0/a3wig+j1XYVHRO4LZfUWFZ/36dctXrNy0cWNGxs7CooJKTyVlcBgQGhoeHh4TGxMXGxcTE5OqkJyclJraICEhPjo62ij4gxmVBqo0k/vDL3uOKMAJK3JFnNCQkD/d/Mh7n32H+JefP+qVJ24/7AH6e80p7Mp72sSWy1ZtIM1CEyPMmfBCm5Zpkn6xpYMrAD5ghqyqqvph0Q9Tp01bunTp9h07SM6QciLP3koiuPKW5Tp2UucSQIASoRgS6zZs2LBBg4ZN09OapqU1adIYSyckJPi8xOAA1t3r9ggBq7MQhQCL5ReWnDD6L7uy8z2V3s9ef2jUyf2wKPIYjjPhd8BhiM5a+UssXuuGj71t7qKVVD3jHrzxusvPMteDS+PV1Gq6zsrK+uabbydOmrR27dqy0rLwiPBwV3hIKIWwbLGBcCVKgCgS4i5cVVj5EW4hVFsjtZKcZCErfzsWFBEZGeOOTklJwbKtWrVq3bp1s2bpDVJTCW7hsh6YxBVyStEB//aRAFOyJbCvv5s35sp/hIaGNk9rMOfLF6OiIljbEtjvZ+N3mdOfy7c+msgBi9zYt0eHyR8+Rb+lWRr+hty2bdvHn3yKLXdmZIRoIgWtvoSV4DPAD9go2S4ZxVrOlwGv9W+pNdB7+bNAKOBDfEOLoxERnJKSnJ7eFNO2bdOGK8HsH7v7NC2w1+3vBzMVV9PVpTf+a/yE6XjkPbde9s9bL/P5vYP9O+D3Rif8wUZRcVnfUVfvysqjZ+pHT/fu3oGwISVCHM2aBnfsyHj//fcnTpqSmbmLYAwNdSElo2IJYaE2KDAYi5jYiGqMYUUrf/AMNS3OwQghK0UECIhg/YDkaG6gqF1Qq64mo1dj5tCQUDbgRo0aYtSOHTt26tSxWXq6y+XSeQJHOmqFZyn+5X2B23Zk9Tv1mtLyinBX2LyvX26Z3gg9qHy/d7nfbk6baO5GBXTvE6/Dz58uOPWlx/6KLVG/z5DZ2dnjx3/0xYQvc3NzMSSdJEmLJ+JXTChsSGoFVGxaQbaAWJY1SKiSkaRKDAoKVcFNchxChsS6XKRPhnRQUgPmNSNDDDpi2+pqZkVFRTdu3Kh9+3bdunXr1LFD06ZNcRqhp3LBuY+KgX/7N4O/xh57/r1/PPoqnF1+7shXnrwd3oTd373Q74pO1Ixis3ML+oy8Oi+/KDo6cv7XLzdtkooFYAuzeTye99//4KOPPt25a2dERAQcM8RErEXYwTmLgwkPJoTcih21FRSIidGtSsiraJkLTbBAlr2Wg43aT6hJpxpVA1duZaTexHqDH5DA6YASpgVou93RaWlpnTt16nZc144dOjRo0IBOAwtZU7QPhNhvAhGz/kTHiYUA3bojk+1p1hfPd2zbnH7z/t8Dwffdd5/TPBQwJ0C7hMu4Vz/6aspcTEv5c/aogd6qKlhEBd/PnHnXXfd8/c23VdXeiIhI5shM0aqqFYticr1BxXIvG2YQCLJligYZk0JXXrhRUxgwTFf9TimPV+rJhPBK20Bo6S0NJSYsOO4bSIUcSv1FtkCKnJzcFStXzpgxc/KU7xYtWpyTkx0aGhYXH0fIQpWpzLKJSsYB//bBgNHhyooRES7OLejNW13tqaw6bdgJNmRohv8b4LdHpymxsKiUXXPHzpz4OPeCb15umJqIAfLycp997kXqHY79rrAw8puusptPWhY9kmPFEHJDN8om+kTlujOySzpOwHL0oQa91auGo8yQjVYgQKqtEAooXjQpGx5L4QiK668mGREi9dlYPKQuAOfgCIGPREZGpjdL79a1S98+vTp17OSOcds01oGqeol1COwW7OBAmOW07ak8/tS/bNycERUVPu/rl1qmN7bwMJzfBr8lOk2ntvbbH09+/7Pv4O+Sc4add/oQtDJ16tS77/7nosWLo6OiYA1Vi6HUx1E0F9GcgL5qOziQ84loV/tEU9jDlC+BiMYVdLo2ZJJ1cl8n9gsJptihl12ZFMoJBiOjZrEq2VXwdaZcWEkNqH1y0RFAMnaQ/sF9RATDebm5y5YvnzZt+rTpM9auX+/1emNjY6IQSpdXszrxZODfPgDYLEo96qBKr3fS9IUeT1VkRPjJJ/ZEjUbkIEn9En5jdKp/yUPawWffuGTFegrVxVPeaJAU89TT477+eqIe9eqqq6oxDw1VvUrOty5HD7pDpUYN3n2xJhe69Ic7+6Kp2rNe3VGlX+bZoOAoBcwgFPVIQDSL2cjNIcFhIaHqIhrO8qRahoQR54cpYmVbzUB9JggibB+eykrmJCcnde7c+cQT+vfu1SsxKdHQfrm/HowxzHK5+UV9R169MysvrXHKom9fiY2Jhjl/UocKvzE68U18dO6ilU/958PKyqoLzhp+Uu82N97810U/LHVHRVVVeWFXtzj9QjG2K3KDCeUqhRJKFIs6MYQMEpxcUanmHLOPXLWh6lbnUJqAnE+cEUjqRL6EemCQPDzSWkl8orZGPvVCfm9cI3PZqaWGEmydJasoCLl6UMdSr2GlcBfbrKvSU7lh48ZpM7+fMuW7dWvXIWNCQgJpWVipr3GUym7Y69ZAHEoPLe7oyB27cub9sLK4pKxDm2ad27fECZX/fcw6GPgt0ckUq7avvePfL731RUJ8/GWn9dq4ZklOXqH82Y3XK9oVfYjPwpmsgNoc0eyqIatI3FqXKMOYkYtqE21LWOqA+hANB1mTnTRkgJaFKqP0icWFiFHWz6thUMO1RikFyB6rx1l7DuWsq1Pl6twKCWnJDCUXgOeJJMhYUeFhpEGD1F49ew4cNKBH9+7YVWdJvLKu8Wng3/aBHU6WrdoweMxNUDtlUO+v3noUsQS5XieHCodsTtGGOldhUUn3U64sKi7vlBYRUlPIzoayvJWVJDdGlRuzmbT4YR01s1yMAiApW7/14ihRNWgdQH2POb8+HNAO/VGrQlMxZFjCVtUBGzJDzjmcgGtkXf3MC+Yxh83V6IGu9ZM+qVAPs6OUgLKFr8iq8uPoSro1o0CpstJb6fGwKEedE044/qTBgzt16qje4zictQ1k9XqoF0z0MGLsbdPnLI2LjZ494YW2LZsSKr+5IDq0ZGvLsx6MTZqx6L1PpnRvERkeWFoXGOL1VNAPy2YyGEdPlkulU7/qJeIq7PKCdq3LQNqaga0hCBoNzo2DIBc1Jk1BFtCHZADGoGahARvkWs4bfHErNqyr81TIh0cxVX9VE0Y6hhBRQkHrrfLSUAOQi8UlWE3tKKtKWxKAY05ezFo4QXhEBMQKC4uWLl06adLkOXPnFZcUJyTEx8XFwZew9Isk7GujMXDKKzwTpy2g0G3ZrHHv49rbad4f/+DhEKLTh4nYZKrb739+xqQJDeJdJRWVKJFRMhI+ix3BgRkRRg0h7OuRy7hEDTQsfQnPRlXxCT3Fp+E87JFVhbLT4FX0yBxF5AVmqqi5AgMppBs3bpSe3rR5s/SmzdLj42LZBSIiI+GAKdQy+Xl5+fkFGRkZGzZt2rx5S2ZmVmlZOcmWDQI2KIntQYXlQMnFcugMwYQwrKvL4upC0hYjKfvSYbLIsHiM11sVFxfbq2ePoUNP7tu3r9stv8UTtn8RrFgOjW3dkdnv1L9k5xYMH9z767cfk+UskR06HKw5QTPmkRaXzMrKuebam0qL89mYPJUV1I4qknChBAXXPBzNoHhdRLY3GeDF0YqGsTHgDAigPO7QIpGnijQBlTAXBdDgpLq6GmV1aN+uf7++vfv0TmuabhSqq2t27cosLS2p4twiT+RrwkKCMW1SUnJCvPNJJznZWfPnL5g1e/aaNetLSssQSmNY3AiTimHJ6vL39LbPhjjcGUNO4pcv4UlHpK1ZAUQ8rLy8nL70pk0HDx44YsTw1q1bGxZsI52IqwA1bHzaJX//dtoCTu3zv365SaOU3xygh2ZOx5bZOX+97e+7du5EYtIU3IjNTDbJrvVmE+GEIbtlELuo/cSvFVkIO/lUARKCTDxJgy8xNtrTIQEZqq0JDQ0lNcXFxgw8sf/pp49u0bIVQ1u2blu+bMWOjIzly5fn5GQXFRVjbBI+FHSnFP7JsSkpyTGxsS1btOjbp0///sezaebmZH/F6WrSlIyMzMioSMpy8xu+8SMsV8PWy61Wy7LLBlEtS6wpb8KXviqDfhZALkY8HsK1wh0d3aNn91NHjTrxxBM41DKKJhVHdi5IPvPqx7c98CJnqXdfvOeskQOtU8kcGhyUOcHRhcWWbBI33HTrpk2bIsLDPZUeZGNI1a6hyW7Mix4hADGI5lXDMYtrv2M5aQl98QJ4Ad3WcvAEjEF+BBU9RkZFo6G+fXpefvmlzZo1pyYcP/7DGTNm7Ny1y+vFfkGyL4aEysnIDzS940i1nFeqqqrKy8sqKyujIyOHDDn53HPPbd++TVlZ6bvvvPPZF19xpEGVJEzW41siVOZJtFoBpd6rQauPNWCPTmXTvtSmIgXLquwc0KtrysrLWL9F8+Zk4OHDhzdv3swYY6fHS35cteHkc24pLim95erznvzndVU19e/IOUT4dXOafoVjcoi36uZbbluxciX7jVYckqC0PFRUbkUYvrGpTESt6t+c2fXJulldcXmxhhpKJons+qO9whYIeisaoYNlqGswzMVjzxtz7rkMPTPu2ekzZhQXF3MsJJeicZ2oV2kIHajQLZEipBBF3E0tEej1esorKnKzsvr06XPf/fc3adxwxfIfH3v831m5+XDqrURAIaATFYSobIH6K1Xn6UFwSKg8a1YP1kF5VR4YVyGVBwlWdlaBiri4+OOP70uw9u3bh0wDHtm+/+hrV63fPLj/cVM/GsdU1aSjqoOHX6lsYQ6iIoQ+73/44cdnzpoV7Xbj3dyKnUiVsl0oGAeaYWmEhoRUk1Js/xcGtdshTFMllR6ZpM7MTB9IycqIMWDI1JAg3HbLjSNGjVq1eu1ll122YMHCmJiYMFc4nFSKe2n9JVlOlahsAEJIiMiCuiiDtTW6TYSHRyYmJa1bv/aN119LTm5w0pCTju/X74eFC0tLywly/U2f/HpAZwmPMAxjRCY/kgDkMzukKiaxoyNxY4ZFAyKOMG+MqBfgVsGhwRHhEZBdu3bt5ClT5syeW+HxpDZIpWpbsHTt8tUbiONzTjsp1i2fWCQkZOVDgF8xJ+TElpLKQ95/b/xrb7wRFRXJZqCDshECcuEHYe1WNSo6FBQxo5oSTUh8C3vKoXTIExxBk1ELQVG1AIvaZKWF1mqj3TGVnorLL7lo+MgRCxYt/vvf/kaENG6SRs5kEx07dmyrFi03b95cWlpK2kDduxkBdA3nzngRLmyTl7VSUlJjY+O+/PKL4uLSAUOG9ujedfas2fLkt6qqHhuQ+RKGSk9BjSefrBoM54JOutc30Io5za4qpggj6Y2lxK5QcIWHsw/vysz8ftbsiRMnVZSVVtcFLVq+qayickj/41qkNwKPgx74fsv9OhzInKpT2RjQzqqVq/7xz/tc4S7Up9LBIsyqmPIqfNe3A0ggcE/hbzZFrRBTBZr+pJNX+QYkfKXFasq5/mgStxaCccuG1+O4bldfe81PG3++5OKLo6Ki4uITvBzjvd6ePXs2b9aySVrT5i1aNGrYMC4uhvRbVlbGEARwRBiQrUiXUQaFJZQM02KOwKDqGimaEhIS3nrrDTJh734nJMS658ybH+2OrqqskkMtE/WXkaITh0vjTm7oI1dJ3iVq9ff2dpAlAxgKSCxjcjtXARQVHO5yUQPPnTc/Y+uG+OjQvKKKrp07HN+rE7WxnNs1nMAXEgcB+zUnVBxagYHsMGyZBYWF3GpJJsRle1RenbAUZUlZz2uV7ivGgENEWRK5JWUB9WLpjTLsAMiCXy+w7rw1pDfc+vzzz0lv1uKhhx9atXJFs2Ytqrw4lrz1ZPOWLUuWLl69ajUepG/YTLzk4ktatW7JetRr+fn5HGgwLXGDzcJC5akC68MwAM8sBtvwExrmioqOWjB/Xveevdq1abNy+TL50Ao9TDNDfuRFTGs9NBzBVVKzL84hJxtJx+LLJGEWJ7uaU8qw+biAqkMKi0D2fprhwVUxoZXlJUU9e3RLTk4CHW3DpGHrgr8C+zUnk1EnxQV+/dTT476bOjU6OpoyUnhSvmHFRNSdSStTvvUBngwrDcWSlCYgE5x+MAWJIdkhcF1pa480LJ7VmHJjZo2OijrjzNNz8wreeP11go3oBBVqDGIkbF5aVrJl65bVq1atXbcmJyePzW/4sBG9evXmTNKwUcOmaWkdO7TPzsnGuuiOBSxebUmWgXOsHhUVXVhYyIbauUvn/NzsdRs2SfEqDEnppPI6ka2iOMIDsKimFWTplas0sKvY2/fGJf3zMVlRRlUZCpKCCZXaALwtJytjwoQvUXXXrl3Zvw/Jovs2pyhQ0yzZ48elSx948KGo6GgyGzzBsXijxCTcqj1lDdEpt5R8UkeKftQaClCTPhFAerVHb0VeydOyHD3iPSqqPC6X0l+uIqkUXC6Xa+jJQ7Zs2/bKSy8SkfHx8awrSlAhIUU8yCM9gi8oaOuWzT9v2jhv3ty169ZlZWX37t23U+fO7dt1aNasGZrJyc2tKK+wvxKBFEcO5ZGcLyKsXb2S6mbo0GGFBfkrlq8kgUJeFKqrCMdiLTVbvdXgwVGEb3PVtg4yJD1QEBXpIyp5/lElpZPOl0HBFJqiAaRA8FmzZi9cuLBH9+MSExPNouDBJFfR0H5g3+b0zeR6xx137tyVSQNTmfks3rQlTAinwUHylgA9Gpu97CIv2vQBsqkNhARiikhmee0Elx8xqnMn/fyQDCnwe/fqGRwWNvHbb8pKy2JiYwkyycPCjyBCj5OhoAfUYXtOn1AqKizEeAsXLli3bt2qVasaNmxEvHbt0rVf3z5MgX9KJ3Y5VhG7hgRXVnry83Ji4+KHDh26adPGnzZsAg0LCYjAGn2aMM0GCr7X+oYfgO6Ma4tpsh/pllQbIH+QhGGxLjwLRcNTzUdHR23ftm3SpCnHH398SkoyFpVBJXMA2Ic5RYNWAQUHT5827ZVX/ktFwN4DB/QLRaWpqyuz2gQf0AUdM5hmAfoIPHzYboVpQamH+n5AZbHE4xDhwi3Sk6dcoWGDBg1cvGQpsUdllJScwtqKWk/OVmcC3Wot2cS0PikqLs7Ozvpx2bL5CxZ4vVXuuPgGqY26H9e9W7du1OpQKykuCXOF5WRnUcL0P2HgiSf0nzljZnZuLqzLqVIfSrAMKziWdZaTCyC68LO1DQI0ABOHu/ovAehIwpcYJxHXVOmbnqRfox4hIiMjCouKFi5YOHLkiPDwcIj409wn7MOcTLCZtO+7/4HMrGxRESvRIxpXRSseF9kbZMOv4p5b1a6AsCgvdfiw3jIFBMjKTLsDQVv81IurIG0FLKsvAaSmiIiIjRs39uzePSU19cPx78MeUcWRUb3IecIJqM6UDlT0Hiq0sCvximUZ2Lz55yVLlqxZs2bDpk14fU5eHs5KxV5SWpy1c+eWLVuuuPLKuBj35198SYxXVcvflkBK6fEtS0FcmBT+5bSjndJlawqCWssazr116S4oXEmfb1zysAyJWTl5SrAyUFNbExkVlbEjAyYHDDgRJQmpemL7BEfX/kAPCiI0V61aOXbsJWEul9TxrAp/wqNEqS4vHAD1tjAW1YzCMRdrOMCNopgY9irKsMezljbpVDRHNzTghLn0q9cHu0JDH3vskfc//ODpfz/ldsdwVmnWrLn8zlzfXSYFqni3clLvkVzhVnkhvTMoMuidfGqnbRARERymy3Kydm3atGnAoJNeeuGFhx9+dNv27Vq/1Ng5RcRUYWjIfq6PoOQOBnWQLhnyoVkNoYB0giCrIpruLzLfQOgoQaVGk21LiAoyzFJBkGw///xTt9stjltfFu0T9jGmKwjM+n5WhcdDspK3aXBEwsPVieSBiDopAJroy3lyK4VASCiHAdBDw3AEeedjRKRAFKkjPCKCDnIa9ETpog/JjSqtCGhvFlAuHJPYitzitlVVleWVntv/9veRp4x49dX/gL1p44bVq1ZmZ2ezNMHHlSmiDeFKLCeEuIqKxYzcMqua8lKsWEfhhE+43bFlZSUZ27etX79+zDnnPfPUU6+//sbW7dvhrdLjYVZ9HScg9NRcODOsyZe6t7kJID1yK1+6uHbKH2hYExXpFL2RaYKnoaGnTJkh722Ss7Ley9uJ8/LyMjOlfKlXzn5h39GJRjDdXXf8/fMvJ1JD4sUmQz2Tzi+LxRjaJ66ka8tsuqShfEo8CF/2Xj3jWGhoFIJsLokd9WQmhpDJ6rGa4uTXkOCZKzPAbPY2KF160YXNmqe9+uqrkyd/V+HxJicnN2rcmCIwPCJc+BEiIogxItzJmnpnalK2SGLl5QRl1o4d28vLyq666sq//OXad98bv2zFcqayg+BM8GKpAWp0QgVWhDwvWr/Aqooh/giGrixLyzigc0RCBNR+6dMZAvYi3Qoqp8zXX7lwi8cQS4y8//47LVu2pAHbMrwf2I859RfUN99045RpsxLj46ss2Yr9xPGYBZpYS+fSDxNoSPlQbgRFxmUOIHPkXvto6ShIRlDuWVMmK0DNqZtUCdhYAFkZA4tVQ0LDSkvL2rdrd+qoEaTDlatWclCjCmUQ5wMSEhPd0e7QULycpCILC8dKGYJEp8dTQXmcl8e+mduyeYtevXqMGjkq1BXx3vvjqYQle1d5CSPlVX1DhZLVnQ4fiEXkBfZUBLMHX+KSMkVF40dkMHwBOLIhu6VRT8q65QVOJUxlB6n9cPwHnLLA/C3mRGCy5XXX/uX98Z8c170HOYdORycK1pYr37o6Xz4E7ZNbGWd9saT2ivEsAUpZwCtTZbbRkE1Ud2IJBzW/0kBKYleBJKnvAQgMxFQELjm6WXqz47p1SYyPwzZky/XrfsrJy83Ozikrr2BTQAo5WMrjNylnoEkBhZUjwl2REa4WzZv36NGjS9fjOITOnj139ZrVYHJyB1PwVWRlTjyJFMPGgDjYSV2XfhEWFcMn8gsyuwZddVLFMF3MI1j6BajZ5Lenpnb5kShUK6pFdV8VC+sotxxr0BoO+fHHHzZu3Bhkqw/2BweKzptuuP7Z519o3qJ14yZpUEF9LKWqF3soar3p6m/4ki6xg+xYtOSGLvUpWmJaJ1pkFg15cSiYdTUK9QskwZSdWfYcGaxBdEVSmbGUlziq8kZFRDVp0rhZetMGqSkk3qLC/Pz8ggL9ASEqKrq8vJxtnN03ISExLS2dHdMrj95qt2zbtmbtuqzMTKyo70QRP7MFlUnhQQwm946IrG75RtgQPiUz2aAIAoJUAw6ftJBBrjJolpIrGjb6istFNcCQToYKvkvZATIltzs68tNPP42Li+VWw2C/cEBz3njDs889HxXlhm7DRo1iY+PkEYkU0AJgiueJvAZKRwxqPY42uMhWK93a3g0iu+CKCrhzWip5PUvWp9WvhTh6hDHZVlVgyk49I8Gy6YjokdSUlJiUnJxC7QVyVGRUsH4MDqhUdtVVVbl5BWWlJYXFRWWlpdCkXrO/DERTLCIbvS4kcSBknd8QAKpz+QETgmChe+FdQMyIXekRJDGJsCWmwgaKSYMh6ZGgrIZSfY/UvYZpc2lxCQ930YEjNm6U+vHHH8uDEY0QcPYHBzLnLTfdOO7Z5+LjE1EblRdnoMio6Gi3mzpV3gMHH8RKfTCxyG7BLPNILAqYtcyDiTVB1xwsS9ugdOhcyEnpIQ2hyNXhTvBBhiANix5emMsrq+vTUKKtWsjVBcj7trlWV5nXU2WzWbrCI7Corl5nj20xGOgGRk3ZVLI6DDvChTInPMIQ5DQcWVQZA2QUdHpkL5AOwxMLccUyetF2PYjiZK8QgJLMdUJdAIqI43JFMKOwsKBjx/bvvP22TWchIb0fONCY2EVOhJAIDgkLg6HioqJdGTu2bP45Y/vW/Lw88oDqGaVIQhfjqj1EYcKlXOijQScuAsPsHMY/1AQdEWol4XAv3zam0ooWTGOiZF5kkr5IS2hCUZ59VtHAczkLkVTl/Q9S3MvTWzfOJxDlcoWSqVxhoRyWODGBpg5hJ2ZIswD0NKn6OiTYJPKET9kR4UhdQ+fYREEUELeVuY4TSIzjur4mKY0LZ5X6PnkSJC09gzFsrmkHGAGyglSKsn8zq7pa6nbjRBc7EOzDnPBqEBcbx60IBiCLs0AwcpaWleVkZ+7YsXXH9i25OVmeilIEZAy+HBKidAPhAP3g89YUamZmJa7dEhCAoyQH7Na5x4By9g0JlXsjoaOM4wZe9k9vJYxhVxIIuwNK0RpD8DSYNJcaAyQJCXUF8Ry8hDsno7CSMqqkRWjlnAEo6aK0zf8YEzb4kgJNzW9C6u8MjSAvdLE08+S9N3zpt5BSq7IRidUFxJRQYIxynBQo94wGB1PuqcQCwsD+YR/mVNICzZo3qw8+4UP4FkUKgviYFF1s1J78/LyMDE7hW7KyMqn+xYkYFD51w3BOGiK+EucCEck/8kpLDCtXkES5Gpjar9METbQGtVw2vfxcOuWBhmyfohPjx6Ss1j/CxbLcRkTI4wt5Dxi21H1OpDAxZKY26/MhTWVZvlEor9KpikdQX4rXHrsKaBQappACQbmRDhmAiCCKTDS4JRiEms2FjCDqMk5cSr8xERoWRuEGhh13W7ZqKQsYSweEfeyd8IQFIE9S7d27T1WNqBL12aNLxeDKLNGR0+SK4SQbCNPhqDIqKiI8ArZENRTuNfLneTJTCbCmpiN5trBbvYypffRH6Du9qjhPZYVsjjXy/g1409QaJX+5J1nIOR7olwmkGlQjQAEEfc+HM2brgCOEuVHvFK/VCQxwhS9VubKrIJN1Qzfl2BBOxywoQ8GYVZ5thrOKr2F2ld1GfvMjAGOa9RjTi0qAR8rDkKAQDmjeyoryioo3XnutTZs26scHOqUA+zCnLW3V0AvPPnP9TTcnJabIYznnWC0iySQVR7EVEEUG+DKaSBjsCg9H6aie0hF1afhJHDIuCmMOahFqMoGmyiOkrUdQJG7s16g10TEJHo+3rrYEEt6qGk+5B5yoaHdcXJyuLQoxCjJXu8DkBcOwEdCJL+ggKGJbwYEtRZZNRE54mFNm8gOiY+WgYC36dKamUPViwbHqBSxLJPgDA6AJcV7MuJqToeA0NO+AwYAqwy9ryUgtjiqGhl5AbXFxYXJS8ttvvUWmoUuWVsz9wb5+o2Jy6jsb+vY7PtYd/e2kyeQAolO9WdWjAisTGju2hvZwQX4kRBjKs4ry8pKSkvLyUnnnqu2+IZKHdR2xq1pBRFGKyK9WMdUp0Ca23LEx1VWBjRsOSknuHhoWFRhYHeWOcrvdJSXFxcVFcfFxqgG1pjqcEhGSohbxTrEH9RF+CZdKn0EnqRr7FmGCrW1E1lE97wZIiQseTRFNzCQL0dZOYVosz6u6qCBroKvbKFW5kRYXEZPJmsyEqA7xo6wERURy3JR8FhUVXlRcfFy340YMH86tjCnNA4AJtjfIkuZK9lvP6TP+fPU1ZWXlurTkXk33wjMoaM80aLOQSIUV0FvlVnQtDz9xCspLakvcTYs9fSwiRGwGNHbzQ4u15PgRwDEpEi8Ic4VGRbZMSOwaEZ6+fPkzLld1SYns1jGxsSQuJphFdU0DXV3Iaj5QjZgNpDBGRxr9BKcwzysoGFXeRSenT9WvUKi3tDCoRDgfyxciqGQSYcqtfHFrnNsUEGwhJrKKHGZUK/pYRhiTNYICa6qqOEqxPYFCGIQESzDgqtdee+2Ys8+GgrIkZA4A+zYnQD+T4YwDHeXiDTfc+Op/X2vUqLFX3smH8aALI7aJw7fQQT6Wk1nQVfHsaqSMqgovaEQ7bsgxgv0vJDRMpBQQMhDk1dRBlypZACK6ecgfiEVGJYcG15WUllEcpTZoyPkHPux5vazoPHZwJspU7bcOU7pRMwHplrbyrhLI0rIuepYf7dFhmY751Y9hFZKsq5blRtyGIkMMpg4kZgNT2io4etD8LyDsKKPWFmwp3+BJptfVxMZGZ2ZlUbE8O25c8+bNzZwy5YCwX3MCNgQfXDds2NCtW3f8JSkpWSVXpYjYug2oVHKEkgJEjOFMriciilCuTavSqwakn9wb7iJe2WIjQ0NDcWwpbWRRBkUXSl/1IjaRslmXruNsWVCQHx0d43KFsaJoSteTJdQErMGrXrm1vKpjAtxJzCELrBM+iGasStYBSUbkfTBMlfVkd3TSrM2HH0sp5p0isnoAL6CpffV5iGpYJBKa0jbD43nCjG7Pauva+PiEyiovFLxeb3JSHOXC9u3bu3br9sRjjwkV5diuB4B9v1fIwEcCHlJSUrp06Txv3vzs7KzKykokhG95miziCoBZVlqK4KIGVCJaYVBeaUjmknvdKtSqDFArmeTeSk9pKTtsSUVFOaJxuLQDLjRNxaBLuW3PXLC0+gNscL7EG+iHvCHSLwvWZ10DxDB101BMMYBwIvgMSc4MDXNpRhX7Gd+CxnaoYghZ4UcSMoT4NtuoTOK+MleX1E4BY0cuJrFMc5iQr/rtiRfmcqRWhQR5K71JibEVFRX5+QXwdNGFY1u1bImxhSXh91dAeHKa+wJZTqlAEdUXFBRMnDhp8uTJc+bMKy0ppqZBw5VeL8bgcNKta7fNW7YUFhSQnIk2rrAo7COoimICCNl64nKrXYKEOviRNzpTEusvvY2I/IICk8nHNjNLNSE8YW/jzbwHotxw5lB6AhZn3Ogr4BiKPvEjMZjTxZicZdUR4UFOriovHOFYtMETDxYDC311NUjKRFkOCmpR2OfL1gUk/ZiGQRS/kXfb0g9ZesUJQkIott3uGBokiKqqajJUXGxscVERRz320Scfe4zTARRgRij+GvyKOQFFEJH90/eHX0y55Oo7Yl3VsZF1BTm7KHAeefiRsWMv+OmnDdOmT582dfrKlSvzCwrQEHaFIfE8KEBKXNipnlRCS5AsIfLJMqJcaUvQBAXJUScyilxMUcoQWdFclVn8oFxnigghgbVbbKNkFxWA9QRZlK+IWNLMKzlDvoSYEEC3IV6vp8pbRf6QZVRLTBXiegVZ/UT7dTKgjLG6SKQ0Hd2yBA4B39w6PQQ0GUXsKm/DFJcNlIRPBurYoU1ZRUVZSZm3pvq0UaeOHj0atcu6SofrgeHXzQk4TCh/eBDRk5Vb2GfENTuz84YP7P7s/de4Y2KTk5MMGUDUNavXzpg5c9q06cuXr8jNzcXvo6OisQ0WEpkM1G4owwRVI0odpLZhPYlq7ZOYcLnkCKtB7wIH3THAFNWmv7qZJnZFMnQqZLWHITMAJpM+NC5bokS4hbGsJ9ZUA8s5Vd4LwYletSzT5CTFqLqDUFPgDjo22ejDME7AFTSZK/+TV945XS3PlsVJLRdDic0D/Pi4+Koq+Vs8b5UnMSEmc2dWq9YtK6ur3dHRd91xJxlKkA8uNIGDMqeBD5MGMo+++G+TZixqmJq0dOobyQkx3qoqdjxVsiQowwSI1+9nzZ42bdqPS3/MzslBDFgM13gFU00iU6CqbVWMciWdSF7PXa28vw3BgsNcYfJYPSo6zOWCGitqTgPUJgpCwmkpASULQTGHRqFgSnCKPZ1JjPGjdLQtyZwtrba6xlPpwTCgatYVFChgL7kKlwJoXOipS9GnsogXwp40hB95L4t2y0f0VFdXu8JcrM9JmBVLSoq6du2w+ectWzZvueKqK9etXz90yJCTh5x8SKEJHKgU2gtEZiVKwmON7LzCqbMWl5V7Wjdv3K1jK9W1qkSXRyRY4TYpKbFH9+PGjDn71FNHdezYkdSSl5eflZ1dVl7KKIGOmoysGEGuqhZRgHOPBvRGKDOC35SWlhYXFZaVlrDJYWDcCLIMiXIVVHqZLXsxLVG5EgOnvqBVM+iIxi7kzaMM0WioNuXZFgiEF4yxfcCQOKCtg7CKKgKrX3JnDaUlOtEVZJy27CAqL+aMYcuEjcCA8vKShg2SGqQ0XL/hp4jwiPYdO9Z4q8ZeeKFNBxmgfTBwCNHpA8xJ8lzz0+YBZ9xQXFI6Yki/CW/KPxczpwf8aYpg+izCx1PGzp1z58zVDzNclJGxk2HKnggnXsX9ZTo/+iIT6qlJGWF7LWyLoSQwMYPLJX8qFBMTQwElu538bZ4o1GaJmeQZAmBuLiyqlsXioi9lmh9wBB13qn9Q7gP4p1/+1La8whXukjjTLZw1xEgIqDWwMiy0dDrryllGsrGT/wU4EsFeZFQkq7BiYVFBWuPUgsKiBikpGZm70po0oTK6/LLL09PTIStUjL2Dg0M2p2rZUfGIC26bOf/HGHfUrC9eaNeqqZlNsRzwJ04bBIQHrCc7O2fu3HnffTd1/oIF27dtq66R90ZHREQaEdybObiztOvp1DfU96UN/1JkmOTh4dg1Rn7BDhE5wEjdhG6ZxaGVOBCjsrwo3JTOqxpazGhtGRZ/USxlVWyp+gzkWEyMlhQXkYYZwiwyV57vsDpTxJOMGiyJsYSsXOFVxuW/5NTJ43WcQ7aJuoL8nAapiZWVVfkF+b1792G1kuKS008/48QTB1iaVWKHAIeQbA1sAfRE2vFUVn4zdYHH402IjxncvzshITqox7GGgbWNP5Qr3l1X53ZHt2/fbtSokeeeM6ZXr16El/zpQVY2WRRz2dFTFFpPgC/TuRDjRr51UJJnCCFEBisrKy0qKqTQJ5IYIAmH6kcvih+IA6BW5sgTO2f+bn+TVejBUWw9sGFXxtWlQIBtFuL8JO9pqa4mjOmVDCGbqJAXr5J5ejy17AroGYbCB+/iWILDIgUhWpCfnZgQGxsXL5r0VBKX4LZv33706NN9thRSxszBgcp56CB8Bwbm6AcTZ+bkt2reeN7XL0fLs2ORwUHaF/gvR9vo+GK6uLh44aJF302ZStT+/PPPFZ6KcBJoRASmxWYaqxqWOlkvQmP3rf4oVX7kA631BOzGUaKi5Y0K6BR00Q8/ujsa0DL1qTuqBrWPCzRRt/SQV5VPaMMVh0RO24zaEKsSrExnbQk+lGCqkEpAHg64wsMg7Ha7mVBWVlZUkJ2YmFBYXNKsadPY2FhkjIuPJ/RvvOEmcoCspSWVQ/yg4ZCjE7Bl8DW3O2rD5h2Ll6/Pyy9u3TytW6fWuJVxsD8+6DewtimRtligrg6pWrZoMXToyeedd26/fn2TkpKRPCc7p7CokDMDeqHUtEzFPKOgFNUKeqMRR4c8FqDX4rWwoKCwsNA+bU0+BUw+L4NB8Q7B9hnSYlHSrphJ5BQvkcgTqoDcI3sQwQkbbPl4DYwxEevWMyO8iMvJQYXNJbiyshKDYSTSLAvmF+SVFuenJCfbhzlQGDZNb8JxpbCw4Kqr/gwmiygNIWbLHjz8xugELCEsX7Vx0Nk3er1V3bu0nfnZM+KPzn5xCODPA3bl6ovXioqKZcuWT58x8/uZM9euXVtUVEz6lFMKp08JMImV+vgUXcuXgqneuiSmiVb5FXpAmCs8OtodF59AqrcDFQNc2flgGtbFFvIqha5p1OwtOGJ19QRJs2JXKJA/iwoL2SkZkHdDMa1G3uPCfoQUpASqnmr9y3h6srJ2hYUEhIS65E1L0ZEbftrQqVPHVq3b5OXlXHfdDelN031pluV+A/xGc9ostASXY678x9ffzYPU+JfvPWPEAHYFOhn9DTz5M7OXXYmzlatWzZgxk+8VK1YW5uczRHxwDNVqVoyAzbQhCVgIQc65kX7tgGq9XcNc7pjYeLFrDC4Ct/QzqjbDgg5Nc03t1Ce6zNQSSdYSo1uyCCwqKCDaqLEJVljSDZUc68F1MC1IJcXFublZ7ujISq/88WHbtq23bdverl3bVq1b5+bkXHnlVR07dvLZEr65KsuHBr/LnIiPMLMXLB9x4e309OjSdvonEqBwwtUwfwPsxRIqpsf/0cTatetmzvx+6rRpy5Yty8vNRevkMTZZeZSDTcF2zOj8zoOL9fKq32hKDKu/SQ00u8rfQbhjwu2DleUdnc4vwkSrYl9Z13StFKFf76+KRAYnq7ObYr+y8jJXmAssfctgUFV1TXZ2pqe8JC4urrS0rLLS07RpUxaiDm/cuHFuXv6Yc84fOmQw/oqDQgriDuVDh9+ebAHmWoCecdldk2cuxLpvjLvzwrNP+T0B6g978WZ2NZmtZ+PGjbNmzZk2bfrixT/s3LkLdqKj5BeoWIKpgq9Wrackd3rjBCugIohdGXCFh1NnJiQkyRFW30jNgPiE/NLDWZQroMSIVLmFAqELafPg/LxcLErb8m1JSXFOdqYrDE8L42wtCAX5+F6LFq3iYt1V1dXFNXGvjHswMlyclVlK7bcr7beb0xY2yy1cumboubfQ2bRJqpS4h/UfMRn480kbG/jbdcvWrXNmz508efKihYt2ZcqHBUZFRVETU5TSVj9Q4wLMMNsqoADpFNOYXeVvS8LCw+Owa1JyXGyc2NU5WUn+1GSrrzKLEdlfLXghRuUsUsNbSHB5eUVOdlZFRSnbZElJKcw2SUurra6u9FY2SWtKNcYOOmXRrofuufnCs04+XAHwe6OTq2n2ylsffeeTKbTvuumS+2//0+Hi75fgzzBtWZ3QMf0GBGzbvn32rNmTJk9euGDhzowMlqcSiQiPgEOQCRcmKAHufHScezE1ZPRpk9mVBE68JiUnY12CnrUYqp8okvGlIS+P+5lJcoeVykpvVnZmSVGBfECDywWafAxOdU10dGRiYmJkZDS8VNeFfL+ioH27ttM//rfuwvUJ/ffB4TEn7ro9I6vfqGvKyj1Ycebnz3Vp3xKNmBIPu0UN/DmnjZkIGst4QEZGBnl40uRJC+bPz9iRgQ2JV0yiLIFvhpEAM+aUmI+ilDxCkypV39ETHhFJ0SR2jU/ASBDRANXlxEuQtZawKykpycvNKS4sCAsLwZKcjpKSkjgykYEppJukNaHUDaj1VgVFL99alZNXPOfL53t2baeKkt3h9yvqd5nTAAoIExIS/Nxrn9zyz+dcrrB+PTtN/uBJ6OJxhzfl7g98UtDAUCwqilZgT501a9akSZPnL1iwY/t2MKiHqUNgmEng6ww4pG0z5EWUy0s912icUoXu0DBXREQk32Ry7AQqbuGpqPBUlPNdVS2ftumOdlPfVlV5k5ISOf8U5OenNWmcktqwqLg4JKi2Kix59VZP5q7s264f+8Q/r6tPY4dHQ7/XnEyHEdGH+HLd8AtuW7B4lbeq+pG7rr7t2gvY6u2RiqE5c44Y+Msi/Oxt152zNA/Pnzd/x47tuKD9qg4DmB5UAqMAqw4pX4d06V++VlZWylvtq6h+JS3hslTdklbDwzW5kl2hVotRo6Kj5S2lnE6ioskWbVs3T2vX+6X3Z3o9FS2aNZ494YVYt3zYFTSgfFj0c3iiE06qCdDg4FXrfh545g3oEftO+fCpPvqvAklMoB0Fc/rAXyja+7Dr7DmTJk6aN2/e9u3byJQar/Io0WdHpcC3GVGnaQtiRCq2hCYdmn2CQkKC5P1N7OHBIZgTo5aVlXGWTUlOiYqOYsPOz8sbfeqIM8+5+Jyr/5WZlY2uJrz5yNCBvQ67cg6DOQGhEVhXUy0p94U3Prvx7nHsU+lNGnz/2XPxcfJ5G0d0Ez0A+EsntlAefHbdlZk5e/acb77+Zu7cOeRh+JRf1elvY+Rpv5N1fY8g5GpVEgdTkiS3CIRogP6Zt1wgII8WgoOoeugpKS2Oi4258qo/n3nGWaSumfOWMvHWa857/J5rLc0eXp0cLnOKmlAHQQmLY6994NNvZsLpqaf0//g/D5DWrEgxNGfOUQefpDT2qpt27do1c+asiZMmkoe3bdvGeFRklLzbAdCHCUwiEfOCOeV/YunHTps4yEtYY0mA0CR7R8sfwsrff1VVewcNHPSnK65q0rjxzfc889xrn4a7wqh9Jn7wpEufQx12nRwecwJGBxlhLi+/cPCYm6h1KXTvvvlSzi32DiOGDi/3vwH85aWNVeCHaLKeHRkZM2d8P3HSpPnz5hUXF5MJKW7Jpmp7YdtiUz6QSB8oEsTBIY455T8hEdqRkW63G4Oi2uuuvX7YsOGg/eedCdfd+TR7KOac8dmz+s9SjkjZf9jMaQA1q3LnL1417Py/knxKSstfeeL2y88feexY1MBfcNqYR2KxPl45v15++Z+WL18RG+P2eCq93ko6sS5zsAQxiuMyDXwyM7bUIigcKyYlJcTEuDHrSUOGXnzRxYg8ecbCMVfeE+YKLS4pG//SfWefOqi+mhU4ds1pduJqFv1owvSLb3gQR63weMa/cv/oU/pT8VIwHDsWNfDXAG3sCmCejz/++Nxzz8NKMe4YDqyMEpiybeof7suRVX/XQmiSY6MiI5NTkmW/DA1t06btOWPO6dGjO1MW/bjm1Iv+TsmDLdkv2TWPaLV/OM0JGItcEYDa4L4nX7//328maDX08asPnjyg57EWo/5gqjDeYJhkOGXKlHfeeXfOnNkZGTvJulGR0SRSIhJb2pEa45kto6Oia+tqUlNTzzr77DNOPx1vgNTKtZtGXfS3kpLy4tKyy84f+dpTd/jKnyMlPnQPL6AIu3I0o3Hrvc8FNTwxvu2IhHYjp85aTI/XK1W+D/NYAx9XvkZOTs633357+2239+3bNzbW+a86RG1UlDs+PiE5JQUrdu7c+YEHHqCkAt8EX756Y7OeY2JaDQtuPPD8q+9Fatlz9V01R07wwxydBkK3/tkCPn7DXeNefPOz2Bj5303vPH/PqJP7HcsxCvh0gghcfYUSt2vXrp01a9bs2bM3btxI2qXySU1N6dW795izx9j/MWKjDQ93/fDjWvbLQqKywnP6sBM+ePlechVkJbLrc4CSPNwA9SMBZkstA8Ufr7vzqaCGAwjQ6BZD3/54Ij1ycKt3VUM+psC4MlApZMt0xvYD+CglE41JMxakdBod23pYcKOBZ/3prvIKD0Rkuz3ywh4pcwLGt8+it/zzWSya2H5UWNrgh8a9rShiVK7gHVEhfyeoCRwwu3J17tXY9JBLzTv/+95X7pansLkENRpw3tX3UhSDYxqgofSOIBxZc5oA5t007njoZYRMbDcyuPGAS298iGKPTnYaQ/PhH7Pg49AaPrDARca/PfBiWJNBCBjY8EQExO6Mmi1tljWOHBxBcwIq7B4WfXP8t+5Wp1AgIHbvEVctW7WBTobMtX34xzj4+NTQFLk2b9s5/IK/hjQeGN9meFjaoEefe9dGj7JcR9acBiYJV5OcY3XLPueGNz2JfTSpw6iX3vxcsf43wtTHG1ffbvrxV9PTe4yJaDYksvnJqZ1Gv/vJZDrVRY9SjvXB0TAn4FMBewyN7RlZoy66PbjRgLg2w0ObUC/cvWHzDkNgX/IhW+MYAR8/XH2myszO+/NfH3c1PYnCh9Dsd+o1K9ZspP+POowdkYPKPkEW0+ocXXBKQcx/jXvryZc+oIFqEuJi/n792L9cemZoqPNXhfK8DXxl7489zPirCNbosKPL2x9PevDpt7btyNSPM66+6qLTHr376siIcDzyaP6Wdw9gyaMG2MlMJb6t3j1n4fJew67koB3Telhok0F9R1399XdzFVeeK1kBSds38SiDrWuAF9r2D8xeuPyU826hRHe3gu2BbfuPnTBptg0Zjk2xnqMJRy86DWw581wsGhISwrGMwuH51z8r91SGyG8w6k4Z2OvmP5876PjjDL/mF/+p/Si4vL9aamrlw3AkWwQELF3x07hXP8J4VdXyUUFwcum5w++7/YrkRPmsEX0vvKPSox2XCkfbnAYsatJiUUtcP6786YGn3pw4faH9TopsfMqg3n+55IyTB/TUGQEEKxNMpwZHQl/+2pDokj+Fdx4JLVy65uW3vpgweW55eQXseauq+/fu/M9bLxvcXx61yw4Cpv5hyx9iSIM/xpyArYvkNOw3MNx+MWn2ky+O/2HZWsIRbYaEBPU5rsNFY4adNqx/Yv2/IDe7Ei3+Svs9GvTXAC0SJR3GD1BSWj5l5qK3Ppo0a8HyCvJHSDDbZMe2zW/+8zkXnT0MPuFHfxH+RwalD/4wcwK+pVEBCQ01oBXc/JOvZz732iekNRsGrVmT1FMG9z5j+In9enSKjJT3kls/fiC/QWb+vpT4y06fxv2lpq1xyOpORgWw2eLl6yZMmvPttPlWdTMLQ3dok371JadfPGZYlP71Iz0UPT5i+2TjaMIfaU4fmLJUO/LhM2gFo341Ze4b47+ZvWhlaVlFcBD2rgsPC23VosnAvl2HnNizZ9d2DVMTnfkKElRqFwF9P4jvxQEZ0nHFQfMs6p+9gbz8oh9X/TRtztKZc5eu3bCtrIKlJU+Eu0J7detwybnDzhk9mNoVTDj0/aqL2z/ckAbHhDkBfzaIVN+OxZ46fsK0b6cu+HlrBtsV5gHRFRqSmpzQrnV6jy5te3Zt265VeqMGSe5o+cyWQ4Xyck9mTt66DduWrvxpycqf1qzfnJGZ6/FUinkCA0KCgtMapwwd2Ov8M04+sU8Xm0J21Yrn2DKkwbFiTgN/ZohUDR5RFhvY9/N+/Hb6grmLVmzZnlVW4ZE0p6oMCw2NcUemJsU3aZiM6tMapTZISUxKjI11R0VHRYS7wkL17ZbVVTUer7es3FNUXJpXUJSVXbB9Z/a2jKwdu3Iyc/KLi8sqvV5Cm8WgybTGDZP79ew4fHDfISf2SEqQbRve8DNJHvVwTBnS4Ngyp8EeRuVG/1+K3ZJ4l63aMPeHldSZa37akpmdh4XkhKejot1A+ehoChamWDIUUJqQwh418q8V5d0+vmXUhEGREWEpRHzLpr2Oa9+/V+ceXdvGx7p1XMpvUMyxDJTksQjHojl94M8bNuPq+00yUFBYsnbj1hVrNq5Ys2nj5gzirKCohFOEp1KeI5ofAA622oAEqmmSmA6hlomNiWrcILlFs0Zd2rfs0qFlp3bNkxLkvxkYYHMKJCc/KByzVvTBMW1OH/gzqSXPHu+SNSAhZ+Xk78rOy84tzM0rLCwupcdTKe/poPYhXkm8pN/YmGiO/Hw3SEkgLcfpeyR8AHFN8nsG4/+CIQ32Nqfdwj0NOQbUg6+K20uwQ8I3ZAOaqM6KTB9Y6Dg3eyrRf64YVI1qIQgSUes7KR4SkHclCpVPS83OgIHUQ9pb300LZH9JDehHZIasbZ1HH4Q5p7mnbQ6GJx8+Tr2nN+8bjCxXOZD4pU1/YFcztfqIc/VfiLu94tIHHBZhQ1DlZ/8gRtojb/8qYHNW39+6xw7sNqdPZVa/kaamzFxkPeSrE/t0JUGBY/oFduPrM9XSsvKps5aIUVF6Tc2g44+Li3XvhU+bK4BeOOHNmPfjirWbSIwYyR0d0aZF2gl9urZvnQ4y9vbXHUtBxte5cu2mOYtWbty8Q/6cNCgoJSm+W8dWg0/oHuOO0lQpYMvZ9L3A6LDj/vTzdipfMJ2BPYFulys0KT62RXqjhPgYeghlKqzs3II5C1eE6v81o5NVSOhNG6VQQ/l6ZP4fAY45fXzYQ1R2nfOvuffbyXODXWEYqKq4bNo3L510Qs/q6mr5Mys/fHlWGRJM6X/2Ff/4fvaSEFcYg9WV3h+mvsFJ30YNH2Tb9rD9y29PePz59zgnyD3DkAInIIDTxXmnD3n0H9ewpZnSbVwYUydjd7zt/he/nDynpKzcphgw1Lxpw3/eetlFY4YhAhOZwlyuDoYfVFVVhYaG3nDX088/83ZYUrz8QW49A/7Y3IYEB7HjYsvRQ/vfedPFDVMSoTll5g/Dz7w+LNZdUy0f4hkSFOQtLD7r3BGfvvYv5GVlf0c8yiAL+1QmB2S15TlX3TNx2sLUBpy43AlxMREJsWZF085ufLVWbn7RGZfdOXvBitQGyRT3CB8TH2NHC582aTCLLIst//Hoq3+57fHcgiIoJyfGc2QkvPhmMRTxypufn37pHfmFJSziCzUSAIR2ZeWNvPD2dz+exKIg2yymkzZYl9GLr3/wiRffRwQmshgTbfW9wPo5XAbERONAsJEYHwPbdvV9C9m4GATPLyh57r+fDBlz00+btjk0w10RrjAWlSlxMS7UFC1vkxde97Po0QHHj2DCMgk58IzL7/xu1uLkpDhyiBzU5M1q+9j5zZYZmTmnXvy3BUvWoF9vVZUh74WvhpTyAUUTWA8/83ZScgJHBVReWl6RV1BcWFQi9tPTY4MGSbPm/nj3I69oZeHMpZ8Vb73v+aXL1zfQZ3vYSyeW4kwVFZWQchFGCbH4yvfzfmQhOLGJ+4PQkBD5V9wu+XwRZFGQBhuw1yvfBYXFaIN1Q0ODU1MT12/cdtVtj5OfYmMiO7Vv0b5NOhyCbCKzmkP3DwUxJxzDDrbMLyw+4/K7Zs5bxoaBaeg3pL3AwQ8J3pmZO/riO5YsX4+Hsr/uDx9AswjPqeGhZ94Od7lU0YEcEdObpL4+7o4v335s5JC+RSVlUAAnMSnu3U+m/LhyQ5B+UhbKCgoO/H7+ss+++T4pKR4E1mGrPvf0k756+9GXH78NT+KwySJkWNZ66Jl3mGXtfVoUY3P92/VjNy/86Jv3Ho+McCFOUFBwaVlF/16dp3/67HcfPT3146c/fe2hsWcNrZD/LBzg9VZxJCUDfT5xdt8eHZdM/u/Uj8Y1apCEB/tLbctBDZ73+vZxQmOvIfEjPVUzZGjWAOjH08TJ8CMBwXXGFJTkbhBzKq1AdjJS2cKla0ggkIfJX2IbQBF86ogRY29b89Pm+Di34jvb8C+BIVjgOn/xKgqQyEj5rHoUlJIU9/U7j1909rBTBvb67PWHRp3cr6S0DKsDZeUVH3wxFT0ZTeqr9z77DlloY4yi4rILzhz67vP3DB3Y64qxpzLXHRXBKCESHRW5YMnqlWs2QQS5/HXtA+vkAJqanMC3cc4VVSH7cZ1a9+rWjo3/1KHHv/Xs3bdefX5xiXCFCLjXF5NmQ4A6iJDViQF19lE2CkaKpcHf69sWNZy9hpCIKTYEGDNcjRRhRuSQSxQEl1EzGRPAMbIGzt7JWvLxKTkFMAp5nB3ZpOjft4UEnxRHjRcWFsqStA9gUToNps1ewiqQhX3C65pLzqB+oYTWgAu8//YrSH2S3GvJnK7ZC5bZm24QAOsuWLyK7Qp/xUWpmal6IIhPQLBbp9aXnT+yuKTc9EiQTZ+zhFFzY4cJP7BOiwk2FG59StSkWysfG1NdY+8s/Os15zVpmFJZKf/Dlw1iw6bt9DMdPm2K/6HIekjLi35cu2TFevKWfK9Yzy25x3AKi0v3Gl3445pNWzJsulFgXWQBNm/b9fm3s8b956OHxr395EsfvPPJ5B+WrYVJlIJ8OIhxbpQBKXAYQ4jWLdK+effx4Rfctn3DlgFD+o44qe/9/349KlJ2+L2AZViva8dWX5EkL/pb1paMEaMH9z6u/SPPvBMTE+VP3YAeprDwijUbcTBume6OjmIJGvKZAkqwY9vmndu3RLzoKAwXumV7JtVN08apUNi6Q56V2yfnkaJPOrFHs7QG0MH5xCa1taOG9Hvm1U8gjIAs9eOqjWAC4HA1NnxgPVxFYYLl3NoVh9BGQHCgsEoQt2zWaGdWTnh4GOjlnkqPxxsaLZ9Z4j/RwJa7/q6np37/Q7Q7EpPreGBZefnkj54+ZUAvEEgeI8fehmJ1u5V/vFdSVHz+OcM+eOk+PInVEYeFEP+uh1+ZOnsxhQX9olT9aLxwV2iHNs3vvPHiM0ecCKZQ92PAiU7wsHmHNs0mvPXIlZefxbZBwvFUEEmCsBcwX/Cra3p2a/f56//68xVjPvrPAxiDKKNKd5D8QR+LE0kZmbmkCzoqvdWNGyQRmtCBGBzUatHbsV1zwoUkgolxZ+ckU1eHOUkYiswxo6ZrB/l/lpJb4Vzlad2iCambwoR+PGbr9l2IyqIMCQOHDOKRurLUXDiQ6EHrMhrwKUsa4t4gDgQCSDhfREQ41ZZ+y7+ocDDQRojkz4iIMEMIocjWz7CFqNo4kKJk1EW3f/DZdyiZVMS27XZHUkgnxceQwDh2n33F3RSVkDIlGGVg9xqkNVTAzvHqM3dRXBQUlsCTP6oP6BR8eXNlbf/eXV55+g7iif2M098+8VURARSxRcWlrMJqHPU4AzBLSYnyeKWd1jBFUiS7kfzbllp4YCEgN7+wWj+gm7mgNW6QrC1hW3kPjIuNZtujysQV0DhrWQLX5Q8KjHOUgwZZi9UtVsgoq9dvRuEgkMM4vURGyN6/T+KkA2EmJrphamJ0ZAT4YBrUI8i+m5qUoM/6JanuMazS4YQvvvn5mrWbGjRIRBY2o3KPp0XTRu7oyOJS+a9+0Mc5Pvt2lvDgP9vMSa92Ciss4PFUsopm5914/uCPj3eATxvJxWj7UiCjXGCrtAw3FzXU1NUmxOvfvSpAB4pcEhJi5JamflI3NYhRwA+4VSy2hqDE+FjaWgpIHypxhYVRBGEAOoODA9k+Kzzyx1z7kWAfACGlQ80R7CJYpNgJWbdx67V3PqXPDsk7UnX37tZeMMXn9mlO0cwLj9y6Yvqbt197QVFJqS8oDZDi+J6dlk1747uPnrLybU+NiRKgsHjF+rDwcLwKBNLyp//915wvX5wz4YVhg/vg4vJbhfp3ie7FxO7oNIBvkhXM+zoNYS+wIQB2wafh9O7LnnDICCrAV2jAAnyEqrsIQwoSa/ox3Yw59/L3ZVLKAmInNbPh42raLbfSbZ32CElDFnxnrYM2J/iR4S527hv/Me6Gu56+8e5xZ1/xj5POvmn5qo2R+rYgaBIfF5491JbbJ2ljxp5CUBzgaCA6YwqMki3lGUhivHmzqMMf9I61eOUbCtQWndu3iIoMb9Io5YzhJ5Ab8OZEeXCh774QVnZT2MN3jhQox7quql41Xl2/jdMDGA46FePbvVpI5wu+9KtbMChoAqas+k7VMjqgLcGknXsq80AATXY7KskX3/j8pbe+IN19M3UeGYVNSyIzKDA/O++2a87v1K4FESbuvm/SwgOhg++CZrI4IwqMshCjlMfKHsrwR5B/KEInxQEVO3kIW+YXFA8868bnXvtkw+YdF541tGjDpGXTXl8/970n770eTCR1piocDXNaOLLdR0eFS5qilg4Myi8oMXlMLbS4tc3SPBRGqZOlpWdEznzi/Oq5eYXFoia+jEJAAPmHw4xoWYsXfDkiPMwhfShA3HMsZjrfYaGhZNfCotK8fJJ9+W03Xnz3LZeyukWVM2FPsBW5qjs5bR3ZDTa62+H2yGeIIwfcay8/s3l6o5w8+UzyqKiIzKy8m+957oTTrj3jsrv+8+5XHAsJUDh0xPdb4miY05ZkDyD/oA6YDg4JKmRjLK+gH5ZUKlEQpxF6xE7ydyBB1HIMAZQ55GHRoURF4K6sXJDNSwB6IIYXC47+Txx7l5AOKQcHARAhppjYvlV6mxZN27Rs2rZlU2Jx0PHdrvvTWdM/HvfEvddhAbMT4Ez7NTCzG5++BlBW7pEtOTBIklU9gAJ98gyFz4S3Hj2+V+f8wmL8nu08JTmeoP9u1g/X3P5EtyGXcxKFCIbX6NgNR8Wcmh7RL/UeWzgi4vi7MnN37MxR0SS9qMsHrNuwNTTUMUmMO6pp4xRVXGBaoxSOfVaUU+WvWb9Fpujvm0Wk2jqSZHauPANhObIcp1UIGr7x8KsAfllZxYC+XSg6Zn3xPHXHnK9enPPlC5PHP/Xsv26mgEcE0FjRn6awr7e+xt6g3SqFAK/KVN3GzTtyC4rIpf6zjLgUlQEB7Jew8dlrD5027HgKtOycfI5qcTFuzmPFZeW33PX0v8a9xWYkiduPgsy0e64MSWIX4G4PLk1rzqA+bqbfuRNw0ORFXvfAp8M026ltc/nTDv1PXgXFpTPn/YgAWqRJybNl+87lazbqkYCDaRUmbNQgiVmogBNqw+QE3JlbCpYflq/Lyslnij7EkZ2M4zZnE8QTgjU1XTq0FEY0cIWbPYF+u/qAW8KeBkbFJ6hsXa4wlEiZC+O6iviczTKlCyEDTRIsrPLSlNwCaEOQFV0AIiBwYZXxE6axO0qwywaymxmwkR3XRMCsnIIRQ/p++tpD87566fmHb+nRtS2lMvsyXMUlxj/73084l4cEBbOmrKcg5oSEXSHOSvrcTo6VRh2gEablLvU7CDTq8QUcfF9RquJR8Cs+VwHNkYGDT+iuOZMUIWXkC29+TpJEcYb2xIvjObyyLqrxVFb16d6BAVSALonUnt3ac5aESFhYCHvJuP98rJVCCEeUnVm5r7//NXlS1FVbh0MM6NtV1lMQKQ8MiuJfZ3FcFEIKEMBLTGTACBqmjtKSi8dbJfzYg1wdZBumDRWUytb+08btIHAKQNzpc5a8+8lkCgJWMW+QWfpHcxD/4cc1pNP+p13bedAl5/35XnrYR/9y2ZkzPn32irGnlsjRU05rHMbW/rRVU9+e5oQQV3Qhb53KyiMH4h3s/wghfOnBlh6+M3bloDu2aPBZOzN7N35+UQnmVXSRliGoZezKBT+vQEgh2MC+3dq1TieMmI7SN/y8/aw/3T1n0Yq1G7bceu/zb4z/JjZGNle8GptdcObJoAFKs26s3kJZ8nBMNJXevU+8xrlw+pylZ11+945duagJP2A/1mfo7TEHt8LNLwAiXNEIDbzH4lJKTJUUVrEKDQFF9gcmCjf6fDE8XH4VI64ZEb5wyeq5i1aiGV8ccxrB+8HEN9jKn3/js3k/rMzIzPnPO1+OvfYB2HLUK+WPHLK5ZT9iotdbzZaJ/jk8L12xfvX6zXQCRIK83cJPIvIcjDs3CiIJLEErN69w8Nk35heWMA08MhvJ2idARISLUCCNsEaX9i2nffLM1h2ZQ8bcrP+qh9mBXm8VZT34ulwdEhLP0MebiJXP33iY0pxoe+ujiZfd8FBKSgIJFo2VllegF/pJIzEc1AICSANZufnnjB780SsPaF5yGECM0Rf/fcr3PyQnxJKx0UJJSXlcrBsm4R99gYCFcvOKPnv9oTNGnAh9M5hIuSdU63sqnn/90w8+n4pcnCxZCEwcNCk+tl3rpiWlFY/cdXX/3p3pkayzJ8AMNsMPLr3pofc+/S4hzs0tO0ZtTV2r5k2mfTKOCg5qW7bv6j3iz7aPIEVlpX0QdSSOTlUIb2ZCRpkeGxPZsW2L9q3T/33f9YuWrhl41g1oA0dhFlkHBVJ2rFz78/zFq6khIM5clLZ4yn/TGiWL49YfV5wXAFVSbhHCODg2IIOzPKvyTQO6dDIEgoUXUtmt4ZNP0JEiC76nshKlGAIaBxmHh4mLzxl+xYWnZu/KgQJOw2E4XD/vjMpb5sq/BS2gpHz6gRswGIuYPWz6Mw/elNYwmQpCMINDOErTHxnhiomOVD+ty8nMvfnP52BLFgJnn7YEwOS6aUvGvDlLFi9bB5pJCieFxaWzFiyfPX8ZZyEf5j6BobFnnCxvwtb/YESygQjCMgRBrNgsreGIwX0L8gpJG3i8+ncIGiZq9ZFONbEIf8wFocLjnfjdvLk/rIRs146tBvbrlp2Vy+JIRxh8MWn2869/Nn/JakwLp+w/hbkF1NuUF75kYLA72eLjHK+Ki0o4afFdUFicm1/k++bW+j1FJRzCwMejEd46Hfy8Qj98pVNc6i0q4UQiS6mcLPby47f/7eZLEJhIIg8Xl5ahBY4ZMquoZOiAXt++90TjBskWbfDGLBr4YJuWaRM/+Hf/nlK+5+UXMoWJbLd5zCX/19U9cPfVT957HbZkCnAAYwASN94q9mP8w3gmVRYWlZBmqMT0lyH7BuMH4sMG93nk7qvhk8SYk1tYmF+EMPBpaDQY7dunS2ZWLmT1fb9l+P2u7Dx3VORrT9953hlD8nZkIkVOfiHaY/fCBEykFnnnuX+cP2YY2S6bqcVlBB+djKIu3D0sJPTBe/7yj5sv0ey1h9fuTrZE0usffGP1oTP4S5BfaFSnJif86YJRsPj6+G9RCvSc0V9CoNSo+OmFZw1lFd/CNFau3fT1d/NIIBgDj4qICG/drPHQgb1OGdQbBJwOlRmyWEVnWid0vpk2f/rsJT9v22V/G0SYsl+eOvT4dq3SzYR00vAttxegBWScOmvx/MWr5HfpfqWEgPJ87ujBrVukmWac/nowyr6FqADmLV6FOcnMKYnxY88eSrQpmuRYtPr2R5MIO9yFTpJQ7+Pajxk9CH/F9p9+8z0+ZJKyZTZplHzJOcN9i5I5qNjZO/F7Ei9x2SA1sUfnNiNP7odK9ynpr7jwkQBWxHN91volmDw+drn62vvUrw9sN9pLwiMBRl8E0V3A6a0H3+oH4NbfX/3B5kKW1m+QVO6tiytrON0HhkCpsg4en+XYmsB37hXgGGUwZEzvdWvgz6j/dMKLjVXFkWcq4h31tw7GnnP3AkgxCpG949IPYAOChul07Qk+foRxPzoYiSk2ag205JMLA/uzupcC6fNXlOAKA85fWNCWyXtK6msY7GFOp+8g4DfjH+TEvbj0wcGwur+5PjgYIoDhHJjaL0n5zzrwEntNNNhn5/7AVvGHQ5j8f3Dsw36z8//B/x4EBPw/7z5TL9NS+REAAAAASUVORK5CYII=;" parent="1" vertex="1">
          <mxGeometry x="114.41" y="430" width="91.18" height="90" as="geometry" />
        </mxCell>
        <mxCell id="DmFKKeBw7BDAcUaFhrxw-8" value="&lt;b&gt;ScreenBeam WiFi&lt;/b&gt;" style="rounded=0;orthogonalLoop=1;jettySize=auto;html=1;entryX=1;entryY=0;entryDx=0;entryDy=0;" parent="1" target="rTl1wURlh0UvGtvhXfdE-3" edge="1">
          <mxGeometry relative="1" as="geometry">
            <mxPoint x="400" y="280" as="sourcePoint" />
          </mxGeometry>
        </mxCell>
        <mxCell id="DmFKKeBw7BDAcUaFhrxw-11" value="" style="pointerEvents=1;shadow=0;dashed=0;html=1;strokeColor=none;fillColor=#505050;labelPosition=center;verticalLabelPosition=bottom;verticalAlign=top;outlineConnect=0;align=center;shape=mxgraph.office.devices.cell_phone_iphone_standalone;" parent="1" vertex="1">
          <mxGeometry x="570" y="165.5" width="30" height="50" as="geometry" />
        </mxCell>
        <mxCell id="DmFKKeBw7BDAcUaFhrxw-14" value="" style="pointerEvents=1;shadow=0;dashed=0;html=1;strokeColor=none;fillColor=#505050;labelPosition=center;verticalLabelPosition=bottom;verticalAlign=top;outlineConnect=0;align=center;shape=mxgraph.office.devices.tablet_ipad;" parent="1" vertex="1">
          <mxGeometry x="610" y="145.5" width="50" height="70" as="geometry" />
        </mxCell>
        <mxCell id="DmFKKeBw7BDAcUaFhrxw-15" value="" style="pointerEvents=1;shadow=0;dashed=0;html=1;strokeColor=none;fillColor=#505050;labelPosition=center;verticalLabelPosition=bottom;verticalAlign=top;outlineConnect=0;align=center;shape=mxgraph.office.devices.laptop;" parent="1" vertex="1">
          <mxGeometry x="660" y="134.5" width="110" height="81" as="geometry" />
        </mxCell>
        <mxCell id="DmFKKeBw7BDAcUaFhrxw-16" value="&lt;div&gt;Mobile devices:&lt;/div&gt;&lt;div&gt;iOS&lt;/div&gt;&lt;div&gt;Android&lt;/div&gt;&lt;div&gt;Windows&lt;br&gt;&lt;/div&gt;" style="text;html=1;align=center;verticalAlign=middle;resizable=0;points=[];autosize=1;" parent="1" vertex="1">
          <mxGeometry x="530" y="100" width="100" height="60" as="geometry" />
        </mxCell>
        <mxCell id="DmFKKeBw7BDAcUaFhrxw-19" value="" style="group" parent="1" vertex="1" connectable="0">
          <mxGeometry x="440" y="160" width="100" height="60" as="geometry" />
        </mxCell>
        <mxCell id="DmFKKeBw7BDAcUaFhrxw-2" value="" style="shape=image;verticalLabelPosition=bottom;labelBackgroundColor=#ffffff;verticalAlign=top;aspect=fixed;imageAspect=0;image=data:image/png,iVBORw0KGgoAAAANSUhEUgAAAJ4AAACRCAIAAAC9sZb5AAAAAXNSR0IArs4c6QAAAARnQU1BAACxjwv8YQUAAAAJcEhZcwAAFiUAABYlAUlSJPAAABLqSURBVHhe7Z15VFRVHMeTRSAVEEhABAQElCVURGrMFMoTGplWqCVJZJnZseW4l6cIKiQOdjqCZp1OegpSMAyCinRGZcsNl1EIBCwWERFkTxTQvod3Y0ZlZu6sMo/7+UPndx+zve/7be/e92bY9evXH2DwEQPyP4N3MGl5C5OWtzBpeYvSZdTt27f7/2XojGF9EIMOKmnxN3V1dS0tLf/8809HR0dra2tvby/ZxtAJpqamY8aMMTc3d3V1tbCwsLGxIRtko0BaeCdUrK+v/+23386dOycUChsbG9va2shmhg6BqPb29osXL/b09BQIBAZ9kG0DIVPaW7duYVNOTk5SUlJFRUVDQwPZwBgEQFrw0ksvQWaZAkO/AUHULSkpmTZtGvk7xuDjo48+gkxEsHsYQFpk05qamoiICBcXF/IajEGJiYlJZGRkamoqJCPiSTFAQO7q6hKLxUFBQUi0rBIe5EBdLy8vkUiEOosM/c/dYfrGjRtffvnlqlWrkGuZroMf6FVaWrpt2zY0L2Tof+6WFq6dl5f3119/EZsx6EHcLSwsPHbsGLH76QvLBFTCu3btIhsYesX48eMhHxGyjzu8FtsKCgqIwdArEG4hHzH6kEiLzHrhwgW4NrEZekVnZyfk6+7uJra0tHDhU6dOoZclNkOvgHynT59GSUVsaWkheHNzM6uK9RfIV1tbSwxpaVFGX7lyhRgMPaS+vh4xmRjS0vb29nZ1dRGDoYdAvtbWVmJITw/Al+fPn0/T0b788subN2/u6elh0VsHGBsbnzx5cvXq1deuXSNDMpg0adKTTz75+eefc6Yq0q5atQrPZ6erdIOhoSE60vDw8KtXr5IhGdwlrSQg02NgYID3w9E0nKF9sKsB2fXKoIq0DL2ASctbmLS8hUnLW5i0vIVJy1uYtLyFSctbmLS8hUnLW5i0vIVJy1uYtLyFSctbmLS8hUnLW5i0vEUVadm6Gb1AIi0Eo7xDBbuRhV4gWfbW0dEhFAr7TTk4OTkJBAJiMLRPQUHBiy++qOyyN4m0PT09TU1Nt27d4kw5mJmZWVpaEoOhfVSTVhKQjYyMbG1t7SlguuoFrELmLUxa3sKk5S1MWt7CpOUtTFrewqTlLUxa3sKk5S1MWt7CpOUtEmlv3brV1kd7e3tnZ2dXV9fNmzd7enrIZoa+IZEWQv7TR21t7eXLl1taWiDzjRs32MS7niKZ1KupqQkNDb3jxkMGBtbW1jY2NmZmZq6urpaWluPHj7ewsLC1tXV0dBw5ciS2mpiYmJqayr8JPkNN1J2vHfAONNAMDBs2jHtgaGjIPQ4ODvbx8Zk1a5a9vT1kNjIyUvanShj0qDtfOyBIwEi33d3diMw4CDo6OpCJW1tb9+/fHxMTgxfy9vaeMWNGWFjYtm3bjhw5UlxcjK3SN4Fk3C80EEhLS0uFQuGnn376/vvvJyYmlpWV4Qgg2xj3Dw1ICx/lbiF36tSpXbt2IUq7ublFRkYmJCScPHmyubkZHk/+lKFDtFL+QOmsrKytW7fGxcWdPXtW4R3oGNpAK9KiX0JMhqIQeO7cuVOmTNm8eXNaWtqlS5dYrNYZWpH2LlB5ffvtt5999ll2dvbFixdZo6wbdCEtyuyWlhZUW++8887s2bPXrVsnFovZL7lpG11IKw1KqpSUlKioqEOHDpEhhnbQtbTwYNTMRUVFycnJ6enp5eXlZAND0+haWg5E4wMHDrz55pshISE7d+6895elGOpzf6TlaGtrq6urg+8mJiYydTWORFqEyps3bxJDh+Tm5m7fvv2FF16AH7OTGxrEEB0nedj3s4oBAQGP9uHXh4eHh52dna2trbGxsZGRUVdXl5ZaF26SGE7s6elpZmZGRhl91NTU/PTTT//++y+xZfDQQw+5urrOmTOHMyUzP/3AfaFfT08PNzfATcjjz7Dra2trm5qaTpw4IRQK8X5QmjxHQ+AACgsLCw0NXbhwIRliqDrzc4fXcnDTdvBR7Gj48YMPPjhy5EhLS0srKyscF/b29nBiZ2dnvBAejB49+tq1a729vRrxZhxMHR0dKKHd3d3xjvgMZMPQRmNeSwOEhJzwY7xfVVVVdXV1RkYGXFn6d2ZUxtDQEB9x8uTJX3zxhbW1NRkdwmhlvlYW8Gy4lIWFBZwYGsycOXPJkiXh4eGIpTY2NuSPVAUHDQpmfB8UVvelsuMHGmh+TE1NITBERZ8aGRkJpceOHYtITjarRHd3N0qqffv24VBlZbNqaKyvhR+7ubnNmzcvLS0tLy8vKipq6dKl48aNI5tVIjs7e8WKFV999ZXCNMO4F82fsoATw2uXL1++du1atFKohu79hXp6RCJRenr6pUuXNF6N8x7NS8sxatSoiRMnfvfddyjtYmJi/P39Ub+RbUpy/PjxiIiIuLg4NterFNqSlgMZVyAQvPrqq+hTfX19hw8fjraKbFOG06dPZ2ZmwndZ3qVHu9JyoDNes2ZNcnLyJ598giIeJtmgDCUlJQjyCQkJLO9SogtpOZB0V65cuWrVKicnJ9XWLRcVFf3yyy/s95Mp0Z20wNjYeOrUqUKh8O2333700UfJqDKcOXPmjTfeQNfLIrNCdCoth5WVFdwX2dfMzEyF1IvO6ujRo21tbcRmyEByDhndBaqV6urqq1evNjQ0XLt2rb29/fbt24icQLXyRxYWFhbTp0/38/NDIX3x4sXu7m6lTkHn5ubiWUFBQQgDmv1ggxPVziFL9guE3Lt37+7du1NTU9FK5uTkYA9euHABMre2tkL4mzdvcpNC5AlqExwcvG7dOhcXF2ULq+bmZnzUqqoqFpblIPFa6Ldjxw4ks4qKirKysvPnz586daqgoODQoUP5+flIb3V1ddxsDHoY7ilqgmCA7sjc3LyxsVGFVRaI5+7u7kNh/kDdmR/K34pHDHz66acjIiI8PT0dHR0RD9UMiQgDCMivv/76vn37EBXIKAUjRozw9vYWiUT4ADhKyCgf0dHMT29v7/Hjx+Pj4zdu3AgxxGIx2aAqUAWRYNmyZRMmTCBDdCAal5eX42uzs1QDorS0cCxE5sLCwszMzMjISPQwcJ3Y2FiUrCqnYbjdE088gXSwevVqev/r6elB0kUvhGaXDDGk0EB5iToL7vvhhx8imKtzqggR/tlnn8WBQmw6UMmnpKSwU1T3ogFpEQ9LSkp27twJDw4ICCgqKiIblAQF0YwZM6KiopRaGIVoIRQKt27dSmzG/2hA2n4QIeHBW7Zs+fjjj5uamsiokkydOjU8PNzZ2ZnYdKBPYycg70KT0nKL1rKysuLi4hYsWBATE9PZ2Um2UWNvbx8SErJhw4bp06eTIQpQ2aEdV+HteIwmpe0H9VRlZWVGRsYPP/ygwuImVFKIzKiZ6Rcko33iunBiM7QkLUDtWlxcvGbNmg8++CA/P5+M0gFpPTw80MktWbKEDCkCAQNeu379enYFfj/akpYDTfCBAwd27dp16dIlOBYZpcPExCQoKMjCwoLYioC60FXhKZehg3alBWVlZSKRKCcnp7S0VKmTTYaGhv7+/u7u7ubm5mRIEci1YrG4paWF2EObO6RVatfTc/ny5ffee2/58uWnT59Wag26q6trfHz84sWLKS8jQHeLHvfrr7/W0hfRLyTSwkscHBxcXFzwr62trTrLEO8FxdS5c+eys7ORgBGlySgFkydPFggE9FNDVVVVx44dY6UykEwPYO+Xl5d39YHHdXV18DBkL9S69fX1RUVF8AmlVBkQT0/PHTt2KLXEAu+LciwvLw+fhAzJZdSoUUlJSWFhYcTWf1SbHpBM6sFrx4wZM3bsWCcnJ/iut7c3PAapzsbGxs7ODv3M6NGjEeiAsgWRNE1NTXiXwMBA7naPZFQuxsbGN27cQFSnvDsCPh4+9tSpUzUbeO4jqk3qDXClHodB38V6KFCxmwICAhYsWLBw4UK0m3A41DWoiVSeDCgsLMSn5K74I0OKQC80YsQI+murEXU6OjrwaYmt56i7ykI+w4cPt7Kymjlz5vPPP492E243ceJEDNJP1Eizf//+Q4cOIbxTHh84yHx9fZ2dnSmTLjLuiRMnhvgaDJleKwuERxwaEHjevHlwO7g1PJhsowYudfjwYR8fH4R6yrCJdIC3wxOl79gsC5RRaIFQfzk6OpIhfUa7XnsXCI9ubm5Lly5FteLl5aXshZdw1p6eHhTMf//9NxmiAHkB70XfCFVUVKicNXiAWqcs4HNIwBkZGd98840Kv0Odnp6Ofhf1EWVdhvSMaIEqjNhygX//8ccf7e3txB56qCUtx7hx40JCQkJDQ5VdgYawiR4UbRV9G4rqHTU8MRRRXV2NVx6yjqsBaTkWLVo0a9YsYihDSkoK+mZiKGLkyJGPPPIIMRSBZgkZd8iemdKYtA4ODtu3bxeJRBMmTFBqNSvqqdjYWMq5P3TDb731FrovPCBDsoGu3GJ0Yg8xNCYtgEuhzEHlrFRV1dbWlpOTo/BUSz8IyH5+fpRdkFgsrq2tJcYQQ5PSwpPQC0VHR2dmZqIHpVyfjO62tbV106ZNlG0oQgIcFyUVseWSlpaGqIBqnNhDCU1Ky4Fdj25y9uzZSoXlc+fOoVQmhiJcXFzQwxFDLmiBrly5MjTPXUikRSWJhAfgRuqUHsOGDUMu3LJlC3qbUaNGkVFFoMHNyspS2JVzICSgayKGXPBdEJPVWSOtv0ikRdRCpYpjHDtC/cMceXfixIkBAQHEVgRa25KSEso1EmZmZj4+PsRQBMqooVknS6SFrs8884yHh8ekSZMCAwNfeeWVqKiovLy8xsZGFbpDIyMjpMMNGzbgX5pqFrv+4MGDiYmJNHkRoR6OO3fuXJrlNUjkZ8+epY/2vEEiLQIpV/hASFSVQqEwOTl548aNP/7445kzZ1SbqfX29nZzc4MHE1suDQ0NxcXF9AuYUSdTLnlEtFd5XbT+IpEWcNM48Jvr16/DWSEwqpuMjIzdu3cfOHCgoqJC2bBmaWkZFBREeZ0WsgDUraqqIrYi8LKUUwuVlZV4ZWIMGe6Q9l6QAgsKCr7//vsVK1Y899xzP//8c3V1NdlGAULx6tWrly1bRtmG4ngSiURddHf/mjZtGhyXGHI5cuQIsvhQq6QUSNsPdnp5eXlqaip6VtRZZJQCFMkPP/wwZUxG2EeooJwOwiu7u7sTQy7Nzc1Xr14dat0trbQcCM7R0dHr169Hj0TvBHCvRYsWoTojtlyOHz+OHE8MuaDFCgkJIYZcUD0gzlMGA96gnLSgvb09Nzf38OHD9Mt9US0LBAJXV1diywWlLLogHDrElg3qZCcnJ2IoApGG3msRPJD4BwnIiarVsErf8IADde9TTz2VkJBAbEXAY/bs2bN27Vqa+TtHR8dff/2VpvhC5PDy8sLRgF1AhmTg6+uLQoFyQhDHbnx8PM1H1QGobeFOpaWlCme10Y/MmTMnNjaW2JCWA6mUMmYCdB3Yp2KxGGmMPF8ROTk5lNMGtra2KHzI0xSBCpzmnBf8G9U+eY4i9u7dS39ByuBh8uTJmzZtIt/h+nWlAzIHnomw+e677/75559kSBFTpkwZPXo0MeTS2tqKTpoyfj722GM0NVpdXR39WQsU9qot57u/WFlZSWcoFaXlgLr5+fmUzS76Hzg6zQJVRJ4rV6500N18ZMyYMcbGxsSQDQ4UpQp7fQR1pfTuVUtadBRJSUnnz5+nOa0PV4iIiKC5bgBVQ2VlJV6W2HJBdUZ5M3x+n2tEmEF1In29uVrSQgMEz4KCAsqKw8HBgTImw2UpJ+cRjXG0EkMu/PZaU1NTRGPpXaGWtBwHDx6kbIQQLiin+XCsUJ71RUFnZ2dHDLnw+6rqESNGeHh4SOcmDUh79uxZyjs3WVtb+/v70zhZTU0NXpYYckHtgE6MGHKhPzutd8BnBALBXQsCNSAtEi2lDEZGRlCCZo04wgBlajQwMKCMBAp7X/3Fx8dn7ty5d9UcGpAWDbVIJKIsaMeNG0czVYBoXFFRgRaL2LJBCKJcJ0VzRYnegSObmxcPDw8nQ/+jAWnRVzQ2NlJWPUgJlFd2oKeiOd2I70Y/rUQe8QjuyA4MDLx3r2pAWo6ysjLySC4InvTSKjy1BrhllMSQC/9m46dMmbJnz57ff/99wBWGGpO2ubmZPJILdKVcxHq77xcZiSEXmgU6vGT+/PnBwcGySo079rI6k9WoackjuUBaynN43PQLMWSDA0XjV78Pzkl75DK0GH5+fo8//nh8fPzRo0c3btwoZ0WwRFp8H2XXx0hDuc4UulJKi89DE5C1Ad4aEGPQgA7Hy8vrtddei46OXrlypa+vL9kgA8mkHqohZCP6Sc27wDFlaWlJDLk0NDRQJlEcpArPD3PVFmUedXBwII/kgsMU3dfgURfOYNYHfJQynYE7fppYnaNVKXekeRf6FwSU8YY+zdN8Ql2i1N7guENaBp+g9W6G3sGk5SkPPPAfdj0xe20XV+8AAAAASUVORK5CYII=;" parent="DmFKKeBw7BDAcUaFhrxw-19" vertex="1">
          <mxGeometry x="62.31" y="30" width="32.69" height="30" as="geometry" />
        </mxCell>
        <mxCell id="DmFKKeBw7BDAcUaFhrxw-3" value="" style="shape=image;verticalLabelPosition=bottom;labelBackgroundColor=#ffffff;verticalAlign=top;aspect=fixed;imageAspect=0;image=data:image/png,iVBORw0KGgoAAAANSUhEUgAAAM0AAACcCAIAAABTDLhsAAAAAXNSR0IArs4c6QAAAARnQU1BAACxjwv8YQUAAAAJcEhZcwAAFiUAABYlAUlSJPAAAAtSSURBVHhe7Zx/TE/fH8f1Tj9EHzWr0cYfNvMjsczPyTTzc36k5VMWNrXYGvlNa6zRZq2FZvgLi/4wfAsJSbRCGqIpDJNfRdJIiop+fJ91T5/Sz/f7XZ3u+76fjz/ee5/Xve9z7j334XXOuffKorKysl/HvH//PjU1NTo6+tevX6WlpbW1tWIDMWMsLS0dHR0HDhy4ZcuWWbNmubq6ig3tYWtri8/2Pauvr3/z5s27d++SkpLu3buXl5cnNhDyN87OzqdPnx4+fPjIkSMtLCxEtAWKZ/3gWSsqKirS0tIgqb29feOehHQGPIEtcAbmCIdagJwFdGLfJurq6l6+fJmSkvL69evy8nIRJaRj4AlsgTMwB/6IaCuEdU3gB25ubnZ2dmIzIfoBZ2AO/BEmNaHks788+/btW3BwMGZ54qeEGALMgT+wSPjUSGvPnj17dvToUfELQowFFsElYVXb+VlBQQHXlaT7wCK4JAr/oUhXWloaGBgoQoR0D7gEoxS1/spnGFNzcnKU74R0E7gEo0ShkQbPamtrq6urea+f9BRtjWrw7OvXr0+fPs3Pz1dChHQTuASj4JUot8xnP3/+VEKEdBO41CqfNTzfjIiIiIyMFAG9sWhClIlGUSbyQJT1JiwsLDw8vPk5unGe6XQ6GxsbfIoy0Sh1dXVITh0+UOqYnvFs/Pjx0dHRnp6eokw0Snp6+s6dOzHfEmW9aemZ8dkIibSmpkYUiHbBVTZi0GwFRz0iA3pGZEDPiAzoGZEBPSMyoGdEBvSMyICeERnQMyIDekZkQM+IDOgZkQE9IzKgZ0QG9IzIgJ4RGdAzIgN6RmRAz4gM6BmRAT0jMqBnRAb0jMiAnhEZ0DMiA3pGZEDPiAzoGZEBPSMyoGdEBvSMyICeERnQMyIDekZkQM+IDOgZkQE9IzKgZ0QG9IzIgJ4RGdAzIgN6RmRAz4gM6BmRAT0jMqBnRAb0jMiAnhEZ0DMiA3pGZEDPiAzoGZEBPSMyoGdEBvSMyICeERnQMyIDekZkQM+IDOgZkQE9IzKgZ0QG9IzIgJ4RGdAzIgN6RmRAz4gM6BmRAT0jMqBnRAb0jMiAnhEZ0DMiA3pGZEDPiAzoGZEBPSMyoGdEBvSMyICeERnQMyIDekZkQM+IDOgZkQE9IzKgZ0QG9IzIgJ4RGdAzw8jNzRXfiCHQM32pqak5e/asv78/PvFdRIl+0DO9qKqqWrp06a5du/Lz8/GJ74iIbUQP6FnXJCUlBQYGpqenl5SUoIhPfEcEcWUH0iX0rAuQt2JiYjIyMkS5CUQQZ1bTE3rWGVevXl2/fn1WVta3b99EqAlEEMdW7CNCpGPoWfvU1dXFx8dDo8TERBFqD2zFPtgT+4sQaY9ueWZpaSm+aYv6+vqUlJRr164haf3+/VtE2wNbsQ/2xP74lYhqix65yhaVlZURERGRkZEioDcjRoxYu3bthAkT0L+93cXOzs7Dhg1Di6LcyyQkJGzevLmioqK6ulqEOsXGxmbQoEGHDx/28fERoV7mw4cPRUVFX758EeXewaKR3NzcU6dOoUUR1ZuwsLDw8HBbW1t8b/Ds3LlzsbGxbae66uHfRpYuXSrKvQbcyszMXLdunbK0NAgnJ6fjx4/PnDkTzolQr4Gl7v8aEWX1MXv27ICAAD8/P8WzhnHTzc1t0aJFjVvNHUzq4+LiysrKRNkQ8Cv8lssCBRgFr0RB8Wzw4MEYlbQ62dKT8vJyTLO2b99+4cKFzudkHYFf4beoAfWgNhE1S+ASjIJXoqx4htD06dNdXV2VkLmBpSLmOsHBwRs2bPj69auIGgtqQD2oDXWa7SIULsEoeCXKimc6na5///5mm88wy0ESwozn8+fPItQ9UA9qQ51qnj/1KnAJRsErUVY8A9bW1g4ODsp38wHL5OLi4uTk5AcPHhg3VnYEakOdqBn19/ZiXIXAJRglCo0IzxwdHUNCQoKCgpSiOYDLj3yzY8eOS5cuffz4UUR7DtSJmlE/WjEr1WARXIJRotyI8AyJbtSoURMnTrSyslIi2ubXr1/p6emhoaHx8fF63iQzAtSM+tEK2kKLIqpp4A8sgkutpmHNI6iLi8uMGTPGjh0rytoF2QXzp5MnT5aWlopQb4JW0BZaNIesBn9gEVwS5SaaPbOzs8MyISoqCssETOJEVHPgYqelpe3atSshIaH3MllL0AraQotoV8OqwRmYA39gEVwS0SaaPVNwd3c/cODAggULRFlbFBUVJSYmYgLR209s2oIW0S5axzGIkLaAMzAH/ojy37T2bPDgwXPmzHFzc9PebQ7kkry8vKNHj/bU/QtDQbtoHcegvawGW+AMzGl5b7Yllnv27BFfm7C1tfX09KyqqsKSoaCgQA3vwiMVg9GjR4uy4eAaYzK+adOm58+fi1BfUFhYePv27ZEjR+J6dOcx6KtXr3AifXsuCrAFmWzZsmX79u1THmW2QpmDteOZgoeHx8KFC9EdGGvfvn3bt7e2u+MZkgfYuHHjkSNHiouLRbTvKC8vx0QtPz/fy8sLRQsLCyVuEGrwDEvLxYsXr169Ojw8fN68eR0NgF14hp8NGDAAaweoihXTmDFjpkyZAuF0Ot2fP3/ETrLojme4qNu2bbt8+XJlZaUI9TU4kmfPnmVnZzs7OyO3iagh9JVnSDoDBw5ctWoVLgfcOHbsGPIRPOlkltWFZ/8BsdAX0xsZMmQImnnx4oXYJotRo0ZBsnHjxomyIezduzcrK0uFt6/KGvH29hZlQ8AkD7x8+VKUZbFkyRIfH581a9ZAhqlTpzo5OXWZjxXPGt4/U8qqRZk1GzG+3LhxA2PlzZs3RVmVzJ07NyQkZP78+aKsYjB3avnIUk+a33NUyloCPXLlyhUMl+p/aQJXbtiwYYcOHUKqMOIqqp/m9xy1B+bayGQfP35U/5s5OEIcJ45W26+sac0zJZNhdZmZmSlCpgCOFseMI1f/Pwzj0Nq4ee7cue3btyM39Ox7PhKwtra2t7c/ePCgn5+fCGkCrc3Pfvz4ERAQkJOTY9IPdjBXc3d3j42N/eeff0TIxNHU/AzDTUpKysOHD9v+x3HTAsePs8C5aGwANfl8Vl9fX1FRgUz2+PFjzTyiRlabNGkSstqgQYOMe2CgHjQybl6+fDkhIUF7f3lAp9OtWLHCx8dn2bJlImSaaGHcxJzsxIkTGRkZ2lum4YxwXjg7nKMImTIm7Nnnz5+Dg4Nv3bqlhqfjvQHOC2eHc+yrF5l6EJMcNzEnO3/+/KVLl65evSr/ob5klNcili9f7uvra4pzNRMeN0tKSq5du4Z1meYlAzhHnCnO14g/+aEeTCyfIZNdvHgRmSwxMdHk7sR2B2tray8vL2Q1b29v08pqprfeLCsry87ODgoK0sB8xTiGDh2KlcHkyZM7ej1ahZiSZ1h8ffnyZffu3Xfu3CkoKBBRs2T48OGzZs3av3+/s7OzSbzfYUrzM6ztnzx5gsWXmUsG0APoB/SGad3vUHs+UzJZaGjo3bt3P336JKJmj4uLi4eHR1RUlPqzmmmMm2fOnElISEhNTTWHpaVBWFlZzZs3z8fHx9/fX4RUiQmMm8XFxdevX3/06BElawv6BD2D/jGJ29SqzmcrV65MTk42q/sXhmJtbb1o0aKzZ8+KsvpQdT5LS0vz9fU1t5tkRoD+QS+hr9BjIqRKVJfPSkpK7t+/v3Xr1qKiotraWhElnWLZ+PdgY2Jipk2b5uTkJKLqQI35DKvL3NzcuLi4wsJCSqY/6Cv0GPoNvafOV1dUlM8wsS0vL4+MjPz+/bs6O0vl6HQ6BweHsLAwe3t79fy9RNXd16ivr6+pqamurjb1N0j7EPShjY1N//791dOHDZ716/d/BVa7ZepEeHYAAAAASUVORK5CYII=;" parent="DmFKKeBw7BDAcUaFhrxw-19" vertex="1">
          <mxGeometry x="9.999999999999943" y="30" width="39.43" height="30" as="geometry" />
        </mxCell>
        <mxCell id="DmFKKeBw7BDAcUaFhrxw-17" style="edgeStyle=none;rounded=0;orthogonalLoop=1;jettySize=auto;html=1;exitX=0.5;exitY=0;exitDx=0;exitDy=0;" parent="DmFKKeBw7BDAcUaFhrxw-19" source="DmFKKeBw7BDAcUaFhrxw-3" target="DmFKKeBw7BDAcUaFhrxw-3" edge="1">
          <mxGeometry relative="1" as="geometry" />
        </mxCell>
        <mxCell id="DmFKKeBw7BDAcUaFhrxw-18" value="Screen Mirroring" style="text;html=1;align=center;verticalAlign=middle;resizable=0;points=[];autosize=1;" parent="DmFKKeBw7BDAcUaFhrxw-19" vertex="1">
          <mxGeometry width="100" height="20" as="geometry" />
        </mxCell>
        <mxCell id="DmFKKeBw7BDAcUaFhrxw-22" value="&lt;b&gt;HDMI IN&lt;/b&gt;" style="edgeStyle=none;rounded=0;orthogonalLoop=1;jettySize=auto;html=1;" parent="1" source="DmFKKeBw7BDAcUaFhrxw-21" target="rTl1wURlh0UvGtvhXfdE-3" edge="1">
          <mxGeometry relative="1" as="geometry" />
        </mxCell>
        <mxCell id="DmFKKeBw7BDAcUaFhrxw-21" value="PC" style="image;html=1;image=img/lib/clip_art/computers/Server_Tower_128x128.png" parent="1" vertex="1">
          <mxGeometry x="405" y="432.5" width="85" height="85" as="geometry" />
        </mxCell>
        <mxCell id="DmFKKeBw7BDAcUaFhrxw-5" value="" style="pointerEvents=1;shadow=0;dashed=0;html=1;strokeColor=none;fillColor=#434445;aspect=fixed;labelPosition=center;verticalLabelPosition=bottom;verticalAlign=top;align=center;outlineConnect=0;shape=mxgraph.vvd.wi_fi;" parent="1" vertex="1">
          <mxGeometry x="405" y="230" width="50" height="50" as="geometry" />
        </mxCell>
        <mxCell id="DmFKKeBw7BDAcUaFhrxw-23" value="VLC Player" style="shape=image;html=1;verticalAlign=top;verticalLabelPosition=bottom;labelBackgroundColor=#ffffff;imageAspect=0;aspect=fixed;image=https://cdn2.iconfinder.com/data/icons/metro-uinvert-dock/128/VLC_Media_Player.png" parent="1" vertex="1">
          <mxGeometry x="470" y="380" width="40" height="40" as="geometry" />
        </mxCell>
        <mxCell id="DmFKKeBw7BDAcUaFhrxw-28" value="&lt;b&gt;Video/Audio Control&lt;/b&gt;" style="edgeStyle=none;rounded=0;orthogonalLoop=1;jettySize=auto;html=1;entryX=1;entryY=0.5;entryDx=0;entryDy=0;" parent="1" source="DmFKKeBw7BDAcUaFhrxw-26" target="DmFKKeBw7BDAcUaFhrxw-21" edge="1">
          <mxGeometry relative="1" as="geometry" />
        </mxCell>
        <mxCell id="DmFKKeBw7BDAcUaFhrxw-26" value="User Control Panel" style="pointerEvents=1;shadow=0;dashed=0;html=1;strokeColor=none;fillColor=#505050;labelPosition=center;verticalLabelPosition=bottom;verticalAlign=top;outlineConnect=0;align=center;shape=mxgraph.office.devices.tablet_ipad;" parent="1" vertex="1">
          <mxGeometry x="685" y="435" width="60" height="80" as="geometry" />
        </mxCell>
        <mxCell id="DmFKKeBw7BDAcUaFhrxw-29" value="Content Storage" style="strokeWidth=2;html=1;shape=mxgraph.flowchart.database;whiteSpace=wrap;verticalAlign=top;labelPosition=center;verticalLabelPosition=bottom;align=center;" parent="1" vertex="1">
          <mxGeometry x="417.5" y="610" width="60" height="20" as="geometry" />
        </mxCell>
        <mxCell id="DmFKKeBw7BDAcUaFhrxw-30" style="edgeStyle=none;rounded=0;orthogonalLoop=1;jettySize=auto;html=1;exitX=0.5;exitY=0;exitDx=0;exitDy=0;entryX=0.5;entryY=1;entryDx=0;entryDy=0;exitPerimeter=0;" parent="1" source="DmFKKeBw7BDAcUaFhrxw-29" target="DmFKKeBw7BDAcUaFhrxw-21" edge="1">
          <mxGeometry relative="1" as="geometry" />
        </mxCell>
        <mxCell id="DmFKKeBw7BDAcUaFhrxw-32" value="&lt;div&gt;Display Sharing Options&lt;/div&gt;&lt;div&gt;(Switch the source)&lt;/div&gt;&lt;div&gt;&lt;br&gt;&lt;/div&gt;" style="text;html=1;align=center;verticalAlign=middle;resizable=0;points=[];autosize=1;" parent="1" vertex="1">
          <mxGeometry x="20" y="400" width="140" height="50" as="geometry" />
        </mxCell>
        <mxCell id="DmFKKeBw7BDAcUaFhrxw-33" value="&lt;div style=&quot;font-size: 12px&quot;&gt;&lt;u style=&quot;font-size: 12px&quot;&gt;Scenario 1&lt;/u&gt;&lt;/div&gt;&lt;div style=&quot;font-size: 12px&quot;&gt;&lt;span style=&quot;font-size: 12px&quot;&gt;1. TV Screen is in &lt;u&gt;&lt;b&gt;Stand By mode&lt;/b&gt;&lt;/u&gt;.&lt;/span&gt;&lt;u style=&quot;font-size: 12px&quot;&gt;&lt;br&gt;&lt;/u&gt;&lt;/div&gt;&lt;div style=&quot;font-size: 12px&quot;&gt;2. User uses &quot;User Control Panel&quot; to play content on the TV.&lt;/div&gt;&lt;div style=&quot;font-size: 12px&quot;&gt;3. When the User starts to play content, the &lt;u&gt;&lt;b&gt;&lt;font color=&quot;#FF0000&quot;&gt;wired&lt;/font&gt; source takes full control&lt;/b&gt;&lt;/u&gt; of the TV screen. &lt;br&gt;&lt;/div&gt;&lt;div style=&quot;font-size: 12px&quot;&gt;4. TV awakes and starts presenting selected content.&lt;br style=&quot;font-size: 12px&quot;&gt;&lt;/div&gt;" style="text;html=1;align=left;verticalAlign=middle;resizable=0;points=[];autosize=1;labelBorderColor=#FF3333;fontSize=12;" parent="1" vertex="1">
          <mxGeometry x="35.59" y="1060" width="520" height="80" as="geometry" />
        </mxCell>
        <mxCell id="DmFKKeBw7BDAcUaFhrxw-34" value="&lt;div style=&quot;font-size: 12px&quot;&gt;&lt;u style=&quot;font-size: 12px&quot;&gt;Scenario 3&lt;br style=&quot;font-size: 12px&quot;&gt;&lt;/u&gt;&lt;/div&gt;&lt;div style=&quot;font-size: 12px&quot;&gt;1. TV screen is &lt;u&gt;&lt;b&gt;presenting &lt;/b&gt;&lt;/u&gt;content &lt;u&gt;&lt;b&gt;via &lt;font color=&quot;#FF0000&quot;&gt;wired&lt;/font&gt; source&lt;/b&gt;&lt;/u&gt;.&lt;/div&gt;&lt;div style=&quot;font-size: 12px&quot;&gt;2. The User connects its mobile device to the ScreenBeam WiFi and enables screen mirroring.&lt;/div&gt;&lt;div style=&quot;font-size: 12px&quot;&gt;3. &lt;u&gt;&lt;b&gt;&lt;font color=&quot;#0000CC&quot;&gt;Wireless&lt;/font&gt; source takes full control&lt;/b&gt;&lt;/u&gt; of the TV screen.&lt;/div&gt;&lt;div style=&quot;font-size: 12px&quot;&gt;4. TV screen starts to presenting selected content.&lt;br&gt;&lt;/div&gt;" style="text;html=1;align=left;verticalAlign=middle;resizable=0;points=[];autosize=1;labelBackgroundColor=none;labelBorderColor=#FF3333;fontSize=12;" parent="1" vertex="1">
          <mxGeometry x="35.59" y="1220" width="520" height="80" as="geometry" />
        </mxCell>
        <mxCell id="DmFKKeBw7BDAcUaFhrxw-36" value="&lt;div style=&quot;font-size: 12px&quot;&gt;&lt;u style=&quot;font-size: 12px&quot;&gt;Scenario 4&lt;br style=&quot;font-size: 12px&quot;&gt;&lt;/u&gt;&lt;/div&gt;&lt;div style=&quot;font-size: 12px&quot;&gt;1. TV screen is &lt;u&gt;&lt;b&gt;presenting &lt;/b&gt;&lt;/u&gt;content &lt;u&gt;&lt;b&gt;via &lt;font color=&quot;#0000CC&quot;&gt;wireless&lt;/font&gt; source&lt;/b&gt;&lt;/u&gt;. &lt;br&gt;&lt;/div&gt;&lt;div style=&quot;font-size: 12px&quot;&gt;2. The User selects Play on &quot;User Control Panel&quot;&lt;br&gt;&lt;/div&gt;&lt;div style=&quot;font-size: 12px&quot;&gt;3. &lt;u&gt;&lt;b&gt;&lt;font color=&quot;#FF0000&quot;&gt;Wired&lt;/font&gt; source takes full control&lt;/b&gt;&lt;/u&gt; of the TV screen.&lt;/div&gt;&lt;div style=&quot;font-size: 12px&quot;&gt;4. TV screen starts to presenting selected content.&lt;br&gt;&lt;/div&gt;" style="text;html=1;align=left;verticalAlign=middle;resizable=0;points=[];autosize=1;labelBackgroundColor=none;labelBorderColor=#FF3333;fontSize=12;" parent="1" vertex="1">
          <mxGeometry x="35.59" y="1300" width="320" height="80" as="geometry" />
        </mxCell>
        <mxCell id="DmFKKeBw7BDAcUaFhrxw-37" value="Scenarios to be fulfilled " style="text;html=1;align=center;verticalAlign=middle;resizable=0;points=[];autosize=1;fontSize=12;fontStyle=1" parent="1" vertex="1">
          <mxGeometry x="30" y="1040" width="150" height="20" as="geometry" />
        </mxCell>
        <mxCell id="DmFKKeBw7BDAcUaFhrxw-38" value="&lt;div style=&quot;font-size: 12px&quot;&gt;&lt;u style=&quot;font-size: 12px&quot;&gt;Scenario 2&lt;br&gt;&lt;/u&gt;&lt;/div&gt;&lt;div style=&quot;font-size: 12px&quot;&gt;&lt;span style=&quot;font-size: 12px&quot;&gt;1. TV Screen is in &lt;u&gt;&lt;b&gt;Stand By mode&lt;/b&gt;&lt;/u&gt;.&lt;/span&gt;&lt;br&gt;&lt;span style=&quot;font-size: 12px&quot;&gt;2. The User connects its mobile device to the ScreenBeam WiFi and enables screen mirroring.&lt;/span&gt;&lt;div style=&quot;font-size: 12px&quot;&gt;3. &lt;u&gt;&lt;b&gt;&lt;font color=&quot;#0000CC&quot;&gt;Wireless&lt;/font&gt; source takes full control&lt;/b&gt;&lt;/u&gt; of the TV screen.&lt;/div&gt;&lt;/div&gt;&lt;div style=&quot;font-size: 12px&quot;&gt;4. TV awakes and starts presenting selected content.&lt;br style=&quot;font-size: 12px&quot;&gt;&lt;/div&gt;" style="text;html=1;align=left;verticalAlign=middle;resizable=0;points=[];autosize=1;labelBorderColor=#FF3333;fontSize=12;" parent="1" vertex="1">
          <mxGeometry x="35.59" y="1140" width="520" height="80" as="geometry" />
        </mxCell>
        <mxCell id="7P57h7jw-dz2YICdta8h-1" value="" style="shape=image;html=1;verticalAlign=top;verticalLabelPosition=bottom;labelBackgroundColor=#ffffff;imageAspect=0;aspect=fixed;image=https://cdn0.iconfinder.com/data/icons/gadgets/128/profire-.png" vertex="1" parent="1">
          <mxGeometry x="110" y="660" width="100" height="100" as="geometry" />
        </mxCell>
        <mxCell id="7P57h7jw-dz2YICdta8h-2" value="" style="shape=image;html=1;verticalAlign=top;verticalLabelPosition=bottom;labelBackgroundColor=#ffffff;imageAspect=0;aspect=fixed;image=https://cdn2.iconfinder.com/data/icons/simple-website/50/Simple_Business-19-128.png" vertex="1" parent="1">
          <mxGeometry x="342" y="720" width="50" height="50" as="geometry" />
        </mxCell>
      </root>
    </mxGraphModel>
  </diagram>
</mxfile>
